<?xml version="1.0" encoding="UTF-8" standalone="no"?>
<!-- Generated by graphviz version 2.40.1 (20161225.0304)
 -->

<!-- Title: TREE Pages: 1 -->

<svg
   xmlns:dc="http://purl.org/dc/elements/1.1/"
   xmlns:cc="http://creativecommons.org/ns#"
   xmlns:rdf="http://www.w3.org/1999/02/22-rdf-syntax-ns#"
   xmlns:svg="http://www.w3.org/2000/svg"
   xmlns="http://www.w3.org/2000/svg"
   xmlns:sodipodi="http://sodipodi.sourceforge.net/DTD/sodipodi-0.dtd"
   xmlns:inkscape="http://www.inkscape.org/namespaces/inkscape"
   width="408pt"
   height="332pt"
   viewBox="0.00 0.00 408.00 332.00"
   version="1.1"
   id="svg168"
   sodipodi:docname="sector-tree.svg"
   inkscape:version="0.92.4 5da689c313, 2019-01-14">
  <metadata
     id="metadata174">
    <rdf:RDF>
      <cc:Work
         rdf:about="">
        <dc:format>image/svg+xml</dc:format>
        <dc:type
           rdf:resource="http://purl.org/dc/dcmitype/StillImage" />
        <dc:title />
      </cc:Work>
    </rdf:RDF>
  </metadata>
  <defs
     id="defs172">
    <inkscape:path-effect
       effect="spiro"
       id="path-effect930"
       is_visible="true" />
    <inkscape:path-effect
       effect="spiro"
       id="path-effect926"
       is_visible="true" />
    <inkscape:path-effect
       effect="spiro"
       id="path-effect908"
       is_visible="true" />
  </defs>
  <sodipodi:namedview
     pagecolor="#ffffff"
     bordercolor="#666666"
     borderopacity="1"
     objecttolerance="10"
     gridtolerance="10"
     guidetolerance="10"
     inkscape:pageopacity="0"
     inkscape:pageshadow="2"
     inkscape:window-width="2560"
     inkscape:window-height="1365"
     id="namedview170"
     showgrid="false"
     inkscape:zoom="2.1029412"
     inkscape:cx="320.2868"
     inkscape:cy="218.03908"
     inkscape:window-x="0"
     inkscape:window-y="0"
     inkscape:window-maximized="1"
     inkscape:current-layer="svg168" />
  <g
     id="graph0"
     class="graph"
     transform="matrix(0.84960822,0,0,0.84960822,33.356475,299.35681)">
    <title
       id="title2">TREE</title>
    <polygon
       stroke="transparent"
       points="404,-328 404,4 -4,4 -4,-328 "
       id="polygon4"
       style="fill:#ffffff" />
    <!-- n1 -->
    <g
       id="node1"
       class="node">
      <title
         id="title6">n1</title>
      <ellipse
         cx="226"
         cy="-306"
         rx="32.494202"
         ry="18"
         id="ellipse8"
         style="fill:none;stroke:#000000" />
      <text
         x="226"
         y="-302.29999"
         font-size="14.00"
         id="text10"
         style="font-size:14px;font-family:Times, serif;text-anchor:middle;fill:#000000">ADD</text>
    </g>
    <!-- n2 -->
    <g
       id="node2"
       class="node">
      <title
         id="title13">n2</title>
      <ellipse
         cx="172"
         cy="-234"
         rx="46.592602"
         ry="18"
         id="ellipse15"
         style="fill:none;stroke:#000000" />
      <text
         x="172"
         y="-230.3"
         font-size="14.00"
         id="text17"
         style="font-size:14px;font-family:Times, serif;text-anchor:middle;fill:#000000">GROUP</text>
    </g>
    <!-- n1&#45;&gt;n2 -->
    <g
       id="edge1"
       class="edge">
      <title
         id="title20">n1-&gt;n2</title>
      <path
         d="m 213.4756,-289.3008 c -6.5546,8.7394 -14.725,19.6334 -22.0769,29.4359"
         id="path22"
         inkscape:connector-curvature="0"
         style="fill:none;stroke:#000000" />
      <polygon
         points="188.4099,-261.7132 194.0099,-257.5132 185.2099,-251.6132 "
         id="polygon24"
         style="fill:#000000;stroke:#000000" />
    </g>
    <!-- n3 -->
    <g
       id="node3"
       class="node">
      <title
         id="title27">n3</title>
      <ellipse
         cx="290"
         cy="-234"
         rx="43.5923"
         ry="18"
         id="ellipse29"
         style="fill:none;stroke:#000000" />
      <text
         x="290"
         y="-230.3"
         font-size="14.00"
         id="text31"
         style="font-size:14px;font-family:Times, serif;text-anchor:middle;fill:#000000">TIMES</text>
    </g>
    <!-- n1&#45;&gt;n3 -->
    <g
       id="edge2"
       class="edge">
      <title
         id="title34">n1-&gt;n3</title>
      <path
         d="m 240.5226,-289.6621 c 8.1701,9.1914 18.5329,20.8495 27.6613,31.119"
         id="path36"
         inkscape:connector-curvature="0"
         style="fill:none;stroke:#000000" />
      <polygon
         points="265.6075,-256.1733 270.8394,-260.8239 274.8671,-251.0245 "
         id="polygon38"
         style="fill:#000000;stroke:#000000" />
    </g>
    <!-- n4 -->
    <g
       id="node4"
       class="node">
      <title
         id="title41">n4</title>
      <ellipse
         cx="152"
         cy="-162"
         rx="32.494202"
         ry="18"
         id="ellipse43"
         style="fill:none;stroke:#000000" />
      <text
         x="152"
         y="-158.3"
         font-size="14.00"
         id="text45"
         style="font-size:14px;font-family:Times, serif;text-anchor:middle;fill:#000000">ADD</text>
    </g>
    <!-- n2&#45;&gt;n4 -->
    <g
       id="edge3"
       class="edge">
      <title
         id="title48">n2-&gt;n4</title>
      <path
         d="m 166.9532,-215.8314 c -2.1958,7.9048 -4.8179,17.3442 -7.2486,26.0949"
         id="path50"
         inkscape:connector-curvature="0"
         style="fill:none;stroke:#000000" />
      <polygon
         points="156.2801,-190.4854 163.0248,-188.6118 156.9759,-179.9134 "
         id="polygon52"
         style="fill:#000000;stroke:#000000" />
    </g>
    <!-- l5 -->
    <g
       id="node10"
       class="node">
      <title
         id="title55">l5</title>
      <polygon
         points="202,-144 256,-144 256,-180 202,-180 "
         id="polygon57"
         style="fill:none;stroke:#000000" />
      <text
         x="229"
         y="-158.3"
         font-size="14.00"
         id="text59"
         style="font-size:14px;font-family:Times, serif;text-anchor:middle;fill:#000000">e</text>
    </g>
    <!-- n3&#45;&gt;l5 -->
    <g
       id="edge9"
       class="edge">
      <title
         id="title62">n3-&gt;l5</title>
      <path
         d="m 275.5439,-216.937 c -7.3216,8.6418 -16.3675,19.3189 -24.5317,28.9554"
         id="path64"
         inkscape:connector-curvature="0"
         style="fill:none;stroke:#000000" />
      <polygon
         points="248.2125,-190.0915 253.5534,-185.5666 244.4187,-180.1992 "
         id="polygon66"
         style="fill:#000000;stroke:#000000" />
    </g>
    <!-- l6 -->
    <g
       id="node11"
       class="node">
      <title
         id="title69">l6</title>
      <polygon
         points="274,-144 328,-144 328,-180 274,-180 "
         id="polygon71"
         style="fill:none;stroke:#000000" />
      <text
         x="301"
         y="-158.3"
         font-size="14.00"
         id="text73"
         style="font-size:14px;font-family:Times, serif;text-anchor:middle;fill:#000000">f</text>
    </g>
    <!-- n3&#45;&gt;l6 -->
    <g
       id="edge10"
       class="edge">
      <title
         id="title76">n3-&gt;l6</title>
      <path
         d="m 292.7758,-215.8314 c 1.1764,7.7004 2.5753,16.8571 3.8828,25.4148"
         id="path78"
         inkscape:connector-curvature="0"
         style="fill:none;stroke:#000000" />
      <polygon
         points="293.2167,-189.7699 300.1364,-190.8272 298.1869,-180.4133 "
         id="polygon80"
         style="fill:#000000;stroke:#000000" />
    </g>
    <!-- l7 -->
    <g
       id="node12"
       class="node">
      <title
         id="title83">l7</title>
      <polygon
         points="346,-144 400,-144 400,-180 346,-180 "
         id="polygon85"
         style="fill:none;stroke:#000000" />
      <text
         x="373"
         y="-158.3"
         font-size="14.00"
         id="text87"
         style="font-size:14px;font-family:Times, serif;text-anchor:middle;fill:#000000">g</text>
    </g>
    <!-- n3&#45;&gt;l7 -->
    <g
       id="edge11"
       class="edge">
      <title
         id="title90">n3-&gt;l7</title>
      <path
         d="m 308.834,-217.6621 c 10.4925,9.1019 23.7734,20.6228 35.5271,30.8187"
         id="path92"
         inkscape:connector-curvature="0"
         style="fill:none;stroke:#000000" />
      <polygon
         points="342.3538,-183.9513 346.9408,-189.239 352.2012,-180.0423 "
         id="polygon94"
         style="fill:#000000;stroke:#000000" />
    </g>
    <!-- n5 -->
    <g
       id="node5"
       class="node">
      <title
         id="title97">n5</title>
      <ellipse
         cx="63"
         cy="-90"
         rx="43.5923"
         ry="18"
         id="ellipse99"
         style="fill:none;stroke:#000000" />
      <text
         x="63"
         y="-86.300003"
         font-size="14.00"
         id="text101"
         style="font-size:14px;font-family:Times, serif;text-anchor:middle;fill:#000000">TIMES</text>
    </g>
    <!-- n4&#45;&gt;n5 -->
    <g
       id="edge4"
       class="edge">
      <title
         id="title104">n4-&gt;n5</title>
      <path
         d="m 133.5591,-147.0816 c -12.3429,9.9854 -28.8158,23.3117 -42.7406,34.5768"
         id="path106"
         inkscape:connector-curvature="0"
         style="fill:none;stroke:#000000" />
      <polygon
         points="88.5379,-115.1618 92.9405,-109.7196 82.9647,-106.1512 "
         id="polygon108"
         style="fill:#000000;stroke:#000000" />
    </g>
    <!-- l1 -->
    <g
       id="node6"
       class="node">
      <title
         id="title111">l1</title>
      <polygon
         points="125,-72 179,-72 179,-108 125,-108 "
         id="polygon113"
         style="fill:none;stroke:#000000" />
      <text
         x="152"
         y="-86.300003"
         font-size="14.00"
         id="text115"
         style="font-size:14px;font-family:Times, serif;text-anchor:middle;fill:#000000">c</text>
    </g>
    <!-- n4&#45;&gt;l1 -->
    <g
       id="edge5"
       class="edge">
      <title
         id="title118">n4-&gt;l1</title>
      <path
         d="m 152,-143.8314 c 0,7.7004 0,16.8571 0,25.4148"
         id="path120"
         inkscape:connector-curvature="0"
         style="fill:none;stroke:#000000" />
      <polygon
         points="148.5001,-118.4133 155.5001,-118.4132 152,-108.4133 "
         id="polygon122"
         style="fill:#000000;stroke:#000000" />
    </g>
    <!-- l2 -->
    <g
       id="node7"
       class="node">
      <title
         id="title125">l2</title>
      <polygon
         points="197,-72 251,-72 251,-108 197,-108 "
         id="polygon127"
         style="fill:none;stroke:#000000" />
      <text
         x="224"
         y="-86.300003"
         font-size="14.00"
         id="text129"
         style="font-size:14px;font-family:Times, serif;text-anchor:middle;fill:#000000">d</text>
    </g>
    <!-- n4&#45;&gt;l2 -->
    <g
       id="edge6"
       class="edge">
      <title
         id="title132">n4-&gt;l2</title>
      <path
         d="m 167.9791,-146.0209 c 9.0012,9.0012 20.4508,20.4508 30.6501,30.6501"
         id="path134"
         inkscape:connector-curvature="0"
         style="fill:none;stroke:#000000" />
      <polygon
         points="196.2359,-112.8143 201.1857,-117.7641 205.7819,-108.2181 "
         id="polygon136"
         style="fill:#000000;stroke:#000000" />
    </g>
    <!-- l3 -->
    <g
       id="node8"
       class="node">
      <title
         id="title139">l3</title>
      <polygon
         points="0,0 54,0 54,-36 0,-36 "
         id="polygon141"
         style="fill:none;stroke:#000000" />
      <text
         x="27"
         y="-14.3"
         font-size="14.00"
         id="text143"
         style="font-size:14px;font-family:Times, serif;text-anchor:middle;fill:#000000">a</text>
    </g>
    <!-- n5&#45;&gt;l3 -->
    <g
       id="edge7"
       class="edge">
      <title
         id="title146">n5-&gt;l3</title>
      <path
         d="m 54.1011,-72.2022 c -4.0797,8.1594 -9.0059,18.0118 -13.5332,27.0664"
         id="path148"
         inkscape:connector-curvature="0"
         style="fill:none;stroke:#000000" />
      <polygon
         points="37.3883,-46.6027 43.6492,-43.4721 36.0466,-36.0931 "
         id="polygon150"
         style="fill:#000000;stroke:#000000" />
    </g>
    <!-- l4 -->
    <g
       id="node9"
       class="node">
      <title
         id="title153">l4</title>
      <polygon
         points="72,0 126,0 126,-36 72,-36 "
         id="polygon155"
         style="fill:none;stroke:#000000" />
      <text
         x="99"
         y="-14.3"
         font-size="14.00"
         id="text157"
         style="font-size:14px;font-family:Times, serif;text-anchor:middle;fill:#000000">b</text>
    </g>
    <!-- n5&#45;&gt;l4 -->
    <g
       id="edge8"
       class="edge">
      <title
         id="title160">n5-&gt;l4</title>
      <path
         d="m 71.8989,-72.2022 c 4.0797,8.1594 9.0059,18.0118 13.5332,27.0664"
         id="path162"
         inkscape:connector-curvature="0"
         style="fill:none;stroke:#000000" />
      <polygon
         points="82.3508,-43.4721 88.6117,-46.6027 89.9534,-36.0931 "
         id="polygon164"
         style="fill:#000000;stroke:#000000" />
    </g>
  </g>
  <path
     style="fill:none;stroke:#000000;stroke-width:0.75000001;stroke-linecap:butt;stroke-linejoin:miter;stroke-opacity:1;stroke-miterlimit:4;stroke-dasharray:6.00000007,6.00000007;stroke-dashoffset:0"
     d="m 219.33567,65.587416 c -7.35428,1.907293 -15.37414,1.79246 -22.34045,-1.239654 -3.48315,-1.516056 -6.66745,-3.747498 -9.18829,-6.58935 -2.52085,-2.841852 -4.36689,-6.298103 -5.20553,-10.003163 -0.78275,-3.458117 -0.68269,-7.09705 0.16082,-10.54085 0.84351,-3.443801 2.42061,-6.692873 4.49761,-9.566435 C 191.41382,21.90084 197.48269,17.738651 204,14.94406 c 9.56874,-4.103028 20.39536,-5.4152692 30.57008,-3.208315 10.17472,2.206954 19.61805,8.011784 25.77957,16.404119 5.45423,7.428975 8.17778,16.447558 11.95244,24.855305 1.88734,4.203874 4.07028,8.308769 6.94397,11.911062 2.87368,3.602294 6.4752,6.698827 10.70499,8.527339 4.13896,1.789248 8.69443,2.305155 13.15674,2.953421 4.46231,0.648266 9.01923,1.490286 12.87822,3.822803 2.74961,1.661968 5.0301,4.022777 6.89399,6.639729 1.86388,2.616951 3.33042,5.494072 4.68698,8.406502 2.71313,5.824855 5.10146,11.974375 9.46099,16.695025 2.87438,3.11248 6.49409,5.46268 10.30882,7.30591 3.81472,1.84323 7.84077,3.20371 11.85232,4.56646 4.01154,1.36276 8.03358,2.73799 11.83503,4.60844 3.80146,1.87044 7.39801,4.26105 10.22761,7.4143 3.2041,3.57059 5.32397,8.01035 6.69409,12.60797 1.37013,4.59763 2.02432,9.37498 2.57863,14.14028 0.57439,4.9379 1.04542,9.95089 0.28569,14.86369 -0.75973,4.91279 -2.87861,9.78126 -6.70527,12.95449 -2.85975,2.37143 -6.51519,3.66191 -10.20891,4.05965 -3.69373,0.39774 -7.43644,-0.056 -11.05907,-0.87961 -7.24526,-1.64726 -14.15475,-4.76851 -21.52922,-5.67654 -7.5421,-0.92867 -15.16533,0.50829 -22.56163,2.252 -7.39629,1.74371 -14.78474,3.81099 -22.37543,4.16758 -13.90066,0.65302 -27.46495,-4.45729 -41.37063,-4.99301 -8.08571,-0.31151 -16.14017,0.92896 -24.21241,1.49 -8.07223,0.56105 -16.4045,0.40247 -23.93444,-2.55992 -6.67626,-2.62654 -12.60137,-7.63288 -15.33567,-14.26574 -1.68116,-4.07815 -2.10784,-8.64093 -1.36698,-12.98934 0.74086,-4.34842 2.63054,-8.47672 5.31273,-11.97864 5.36437,-7.00384 13.75417,-11.32466 22.44586,-12.83622 6.14751,-1.0691 12.62503,-0.87388 18.34713,-3.36233 2.86105,-1.24423 5.48651,-3.19468 7.11011,-5.85881 0.8118,-1.33207 1.36246,-2.83009 1.54477,-4.37934 0.1823,-1.54926 -0.01,-3.14877 -0.6104,-4.58833 -0.66234,-1.58673 -1.79693,-2.93884 -3.0778,-4.08591 -1.28087,-1.14708 -2.71412,-2.10831 -4.11749,-3.10178 -1.40336,-0.99348 -2.79106,-2.03145 -3.94841,-3.30305 -1.15734,-1.2716 -2.08179,-2.80023 -2.40875,-4.48828 -0.37219,-1.92155 0.0573,-3.941688 0.94036,-5.6884 0.88309,-1.746712 2.19706,-3.243171 3.63402,-4.572091 2.8739,-2.65784 6.32197,-4.760368 8.62143,-7.92832 1.38617,-1.909718 2.30061,-4.161092 2.62576,-6.498349 0.32515,-2.337257 0.0591,-4.755963 -0.77849,-6.962074 -0.8376,-2.206112 -2.24619,-4.194382 -4.05801,-5.706261 -1.81183,-1.511878 -4.02351,-2.542711 -6.3487,-2.945205 -2.70207,-0.467734 -5.48569,-0.0933 -8.1476,0.565675 -2.6619,0.65897 -5.24691,1.599055 -7.90135,2.287471 z"
     id="path924"
     inkscape:connector-curvature="0"
     inkscape:path-effect="#path-effect926"
     inkscape:original-d="M 219.33567,65.587416 C 213.98526,66.539216 194.84691,53.698555 182.6014,47.755249 170.35589,41.811943 196.86789,25.880373 204,14.94406 c 7.13212,-10.9363133 37.56718,8.796452 56.34965,13.195804 18.78247,4.399351 19.73502,30.195054 29.6014,45.293706 9.86638,15.098651 17.3574,4.516736 26.03496,6.776224 8.67758,2.259495 14.02872,21.160086 21.04196,31.741256 7.01324,10.58117 29.48327,15.92932 44.22378,23.89511 14.74051,7.96578 6.18257,17.83141 9.27272,26.74825 3.09017,8.91684 -4.27896,18.54471 -6.41958,27.81818 -2.1406,9.27348 -28.53071,-1.66508 -42.7972,-2.4965 -14.26648,-0.83142 -29.95729,4.27897 -44.93706,6.41958 -14.97977,2.14061 -27.57967,-3.32942 -41.37063,-4.99301 -13.79096,-1.66359 -32.09715,-0.71403 -48.14685,-1.06992 -16.0497,-0.3559 -10.22303,-9.51125 -15.33567,-14.26574 -5.11264,-4.7545 17.59516,-25.20355 26.39161,-37.8042 8.79645,-12.60065 17.59516,-12.12662 26.39161,-18.18881 8.79646,-6.06219 -9.03422,-9.98676 -13.55245,-14.97902 -4.51823,-4.992261 8.79796,-12.126629 13.19581,-18.188811 4.39785,-6.06219 -5.70554,-14.74201 -8.55944,-22.111889 -2.8539,-7.36988 -10.69855,1.901347 -16.04895,2.853146 z" />
  <path
     style="fill:none;stroke:#000000;stroke-width:0.75000001;stroke-linecap:butt;stroke-linejoin:miter;stroke-opacity:1;stroke-miterlimit:4;stroke-dasharray:6.00000007,1.50000002,0.75000001,1.50000002;stroke-dashoffset:0"
     d="m 133.74126,148.32867 c 4.71961,-4.68319 10.13851,-8.83542 16.40559,-11.05594 5.73662,-2.03257 12.02695,-2.36072 18.0043,-1.2155 5.97735,1.14522 11.64105,3.73627 16.59011,7.27844 3.56543,2.55187 6.80294,5.63085 9.15948,9.3283 2.35654,3.69744 3.79938,8.04401 3.67968,12.42694 -0.14972,5.48189 -2.75862,10.7382 -6.6017,14.65027 -3.84308,3.91206 -8.84503,6.55294 -14.08361,8.17491 -9.66584,2.99273 -20.03773,2.64334 -29.95805,4.63636 -3.85178,0.77383 -7.69855,1.93228 -10.95693,4.12727 -1.62919,1.0975 -3.09655,2.45019 -4.24156,4.04634 -1.14501,1.59616 -1.96219,3.43986 -2.27703,5.37884 -0.40846,2.51557 0.0314,5.09231 0.6622,7.56152 0.63084,2.46921 1.45494,4.89737 1.8343,7.4175 0.90633,6.0208 -0.8207,12.23657 -3.92308,17.47553 -1.29368,2.18463 -2.82509,4.23507 -3.91632,6.52754 -0.54561,1.14624 -0.97896,2.35271 -1.19359,3.6039 -0.21462,1.2512 -0.20613,2.54997 0.11691,3.77765 0.59108,2.24631 2.21101,4.12743 4.15627,5.39679 1.94526,1.26936 4.20244,1.98109 6.47175,2.47658 2.26932,0.49549 4.57952,0.7894 6.8443,1.3052 2.26479,0.5158 4.51234,1.26948 6.42278,2.59066 3.1705,2.19259 5.15501,5.79784 6.07771,9.54059 0.92269,3.74275 0.88301,7.65097 0.69852,11.50136 -0.19103,3.98686 -0.53672,7.99638 -1.62597,11.83631 -1.08925,3.83993 -2.96674,7.52967 -5.86355,10.27558 -3.15001,2.98593 -7.35038,4.70186 -11.63257,5.4098 -4.28219,0.70795 -8.66748,0.4657 -12.97582,-0.0601 -10.38742,-1.26781 -20.57392,-4.16874 -31.027964,-4.63637 -10.661828,-0.47693 -21.253267,1.59058 -31.741262,3.56643 -5.490769,1.03442 -11.055066,2.05076 -16.630121,1.68018 -5.575055,-0.37059 -11.24938,-2.27855 -15.111138,-6.31654 -2.960968,-3.09609 -4.658472,-7.23096 -5.452963,-11.4407 -0.794491,-4.20974 -0.745289,-8.52913 -0.609974,-12.81105 0.140444,-4.44419 0.381246,-8.94627 1.743897,-13.17874 1.362651,-4.23246 3.984316,-8.22629 7.885473,-10.35972 2.798091,-1.5302 6.035883,-2.00849 9.203513,-2.37853 3.167631,-0.37005 6.399626,-0.67091 9.341942,-1.90119 3.217599,-1.34539 5.989805,-3.84566 7.413154,-7.02954 0.711675,-1.59194 1.084243,-3.33868 1.047869,-5.08208 -0.03637,-1.74339 -0.484752,-3.48102 -1.328156,-5.00726 -0.905225,-1.63812 -2.24025,-3.00327 -3.694222,-4.18175 -1.453972,-1.17849 -3.035956,-2.18719 -4.568512,-3.26149 -1.532557,-1.07431 -3.029446,-2.22667 -4.255157,-3.64105 -1.22571,-1.41439 -2.17477,-3.1151 -2.461129,-4.96466 -0.205892,-1.32983 -0.06287,-2.70425 0.347457,-3.98584 0.410328,-1.28158 1.083476,-2.47183 1.916779,-3.52845 1.666606,-2.11323 3.938232,-3.66899 6.295204,-4.96823 8.278456,-4.56335 17.785827,-6.26126 27.104899,-7.84615 4.731787,-0.80473 9.524019,-1.61487 13.909087,-3.56643 4.672173,-2.07933 8.715115,-5.39185 12.173794,-9.15886 3.45868,-3.76701 6.3708,-7.99623 9.22481,-12.23975 6.59334,-9.8034 13.01231,-19.85324 21.3986,-28.17483 z"
     id="path928"
     inkscape:connector-curvature="0"
     inkscape:path-effect="#path-effect930"
     inkscape:original-d="m 133.74126,148.32867 c 7.13212,-9.39085 10.93781,-7.37137 16.40559,-11.05594 5.46779,-3.68457 23.06369,4.04121 34.59441,6.06294 11.53072,2.02173 8.56019,14.50275 12.83916,21.75524 4.27897,7.2525 -13.78946,15.21604 -20.68531,22.82518 -6.89586,7.60914 -19.97128,3.09016 -29.95805,4.63636 -9.98676,1.5462 -11.6496,9.03422 -17.47552,13.55245 -5.82593,4.51823 1.66509,9.98526 2.4965,14.97902 0.83142,4.99376 -2.61464,11.6496 -3.92308,17.47553 -1.30843,5.82592 -3.32791,9.27197 -4.993,13.90909 -1.66509,4.63711 15.93082,7.8454 23.8951,11.76923 7.96429,3.92383 4.51823,14.02722 6.77623,21.04195 2.25799,7.01474 -4.99226,14.74051 -7.48952,22.11189 -2.49725,7.37138 -16.40484,3.56568 -24.60839,5.34966 -8.20354,1.78396 -20.68456,-3.09167 -31.027964,-4.63637 -10.343407,-1.54471 -21.160092,2.37687 -31.741262,3.56643 -10.581169,1.18956 -21.160089,-3.09166 -31.741259,-4.63636 -10.581169,-1.5447 -4.041208,-16.16859 -6.062937,-24.25175 -2.021729,-8.08316 6.42033,-15.69306 9.62937,-23.53846 3.209041,-7.8454 12.364387,-2.8539 18.545455,-4.27972 6.181068,-1.42583 4.755995,-11.41334 7.132867,-17.11888 2.376873,-5.70554 -9.985264,-10.70005 -14.97902,-16.04895 -4.993758,-5.3489 5.707043,-8.32243 8.55944,-12.48252 2.852397,-4.16009 18.07068,-5.23152 27.104899,-7.84615 9.034215,-2.61464 9.273472,-2.37837 13.909087,-3.56643 4.635615,-1.18807 14.266484,-14.26649 21.398604,-21.39861 7.13212,-7.13212 14.26648,-18.78397 21.3986,-28.17483 z" />
</svg>
