<?xml version="1.0" encoding="UTF-8" standalone="no"?>
<!DOCTYPE svg PUBLIC "-//W3C//DTD SVG 1.1//EN"
 "http://www.w3.org/Graphics/SVG/1.1/DTD/svg11.dtd">
<!-- Generated by graphviz version 2.40.1 (20161225.0304)
 -->
<!-- Title: TREE Pages: 1 -->
<svg width="408pt" height="332pt"
 viewBox="0.00 0.00 408.00 332.00" xmlns="http://www.w3.org/2000/svg" xmlns:xlink="http://www.w3.org/1999/xlink">
<g id="graph0" class="graph" transform="scale(1 1) rotate(0) translate(4 328)">
<title>TREE</title>
<polygon fill="#ffffff" stroke="transparent" points="-4,4 -4,-328 404,-328 404,4 -4,4"/>
<!-- n1 -->
<g id="node1" class="node">
<title>n1</title>
<ellipse fill="none" stroke="#000000" cx="226" cy="-306" rx="32.4942" ry="18"/>
<text text-anchor="middle" x="226" y="-302.3" font-family="Times,serif" font-size="14.00" fill="#000000">ADD</text>
</g>
<!-- n2 -->
<g id="node2" class="node">
<title>n2</title>
<ellipse fill="none" stroke="#000000" cx="172" cy="-234" rx="46.5926" ry="18"/>
<text text-anchor="middle" x="172" y="-230.3" font-family="Times,serif" font-size="14.00" fill="#000000">GROUP</text>
</g>
<!-- n1&#45;&#45;n2 -->
<g id="edge1" class="edge">
<title>n1&#45;&#45;n2</title>
<path fill="none" stroke="#000000" d="M213.4756,-289.3008C205.001,-278.0013 193.8252,-263.1002 185.2099,-251.6132"/>
</g>
<!-- n3 -->
<g id="node3" class="node">
<title>n3</title>
<ellipse fill="none" stroke="#000000" cx="290" cy="-234" rx="43.5923" ry="18"/>
<text text-anchor="middle" x="290" y="-230.3" font-family="Times,serif" font-size="14.00" fill="#000000">TIMES</text>
</g>
<!-- n1&#45;&#45;n3 -->
<g id="edge2" class="edge">
<title>n1&#45;&#45;n3</title>
<path fill="none" stroke="#000000" d="M240.5226,-289.6621C250.7753,-278.1278 264.4809,-262.709 274.8671,-251.0245"/>
</g>
<!-- n4 -->
<g id="node4" class="node">
<title>n4</title>
<ellipse fill="none" stroke="#000000" cx="152" cy="-162" rx="32.4942" ry="18"/>
<text text-anchor="middle" x="152" y="-158.3" font-family="Times,serif" font-size="14.00" fill="#000000">ADD</text>
</g>
<!-- n2&#45;&#45;n4 -->
<g id="edge3" class="edge">
<title>n2&#45;&#45;n4</title>
<path fill="none" stroke="#000000" d="M166.9532,-215.8314C163.8982,-204.8334 160.018,-190.865 156.9759,-179.9134"/>
</g>
<!-- l5 -->
<g id="node10" class="node">
<title>l5</title>
<polygon fill="none" stroke="#000000" points="256,-180 202,-180 202,-144 256,-144 256,-180"/>
<text text-anchor="middle" x="229" y="-158.3" font-family="Times,serif" font-size="14.00" fill="#000000">e</text>
</g>
<!-- n3&#45;&#45;l5 -->
<g id="edge9" class="edge">
<title>n3&#45;&#45;l5</title>
<path fill="none" stroke="#000000" d="M275.5439,-216.937C266.1723,-205.8755 253.9756,-191.4794 244.4187,-180.1992"/>
</g>
<!-- l6 -->
<g id="node11" class="node">
<title>l6</title>
<polygon fill="none" stroke="#000000" points="328,-180 274,-180 274,-144 328,-144 328,-180"/>
<text text-anchor="middle" x="301" y="-158.3" font-family="Times,serif" font-size="14.00" fill="#000000">f</text>
</g>
<!-- n3&#45;&#45;l6 -->
<g id="edge10" class="edge">
<title>n3&#45;&#45;l6</title>
<path fill="none" stroke="#000000" d="M292.7758,-215.8314C294.4306,-205 296.5255,-191.2876 298.1869,-180.4133"/>
</g>
<!-- l7 -->
<g id="node12" class="node">
<title>l7</title>
<polygon fill="none" stroke="#000000" points="400,-180 346,-180 346,-144 400,-144 400,-180"/>
<text text-anchor="middle" x="373" y="-158.3" font-family="Times,serif" font-size="14.00" fill="#000000">g</text>
</g>
<!-- n3&#45;&#45;l7 -->
<g id="edge11" class="edge">
<title>n3&#45;&#45;l7</title>
<path fill="none" stroke="#000000" d="M308.834,-217.6621C321.7478,-206.4597 338.8856,-191.5932 352.2012,-180.0423"/>
</g>
<!-- n5 -->
<g id="node5" class="node">
<title>n5</title>
<ellipse fill="none" stroke="#000000" cx="63" cy="-90" rx="43.5923" ry="18"/>
<text text-anchor="middle" x="63" y="-86.3" font-family="Times,serif" font-size="14.00" fill="#000000">TIMES</text>
</g>
<!-- n4&#45;&#45;n5 -->
<g id="edge4" class="edge">
<title>n4&#45;&#45;n5</title>
<path fill="none" stroke="#000000" d="M133.5591,-147.0816C118.7937,-135.1365 98.1182,-118.4103 82.9647,-106.1512"/>
</g>
<!-- l1 -->
<g id="node6" class="node">
<title>l1</title>
<polygon fill="none" stroke="#000000" points="179,-108 125,-108 125,-72 179,-72 179,-108"/>
<text text-anchor="middle" x="152" y="-86.3" font-family="Times,serif" font-size="14.00" fill="#000000">c</text>
</g>
<!-- n4&#45;&#45;l1 -->
<g id="edge5" class="edge">
<title>n4&#45;&#45;l1</title>
<path fill="none" stroke="#000000" d="M152,-143.8314C152,-133 152,-119.2876 152,-108.4133"/>
</g>
<!-- l2 -->
<g id="node7" class="node">
<title>l2</title>
<polygon fill="none" stroke="#000000" points="251,-108 197,-108 197,-72 251,-72 251,-108"/>
<text text-anchor="middle" x="224" y="-86.3" font-family="Times,serif" font-size="14.00" fill="#000000">d</text>
</g>
<!-- n4&#45;&#45;l2 -->
<g id="edge6" class="edge">
<title>n4&#45;&#45;l2</title>
<path fill="none" stroke="#000000" d="M167.9791,-146.0209C179.165,-134.835 194.1322,-119.8678 205.7819,-108.2181"/>
</g>
<!-- l3 -->
<g id="node8" class="node">
<title>l3</title>
<polygon fill="none" stroke="#000000" points="54,-36 0,-36 0,0 54,0 54,-36"/>
<text text-anchor="middle" x="27" y="-14.3" font-family="Times,serif" font-size="14.00" fill="#000000">a</text>
</g>
<!-- n5&#45;&#45;l3 -->
<g id="edge7" class="edge">
<title>n5&#45;&#45;l3</title>
<path fill="none" stroke="#000000" d="M54.1011,-72.2022C48.6042,-61.2085 41.5707,-47.1413 36.0466,-36.0931"/>
</g>
<!-- l4 -->
<g id="node9" class="node">
<title>l4</title>
<polygon fill="none" stroke="#000000" points="126,-36 72,-36 72,0 126,0 126,-36"/>
<text text-anchor="middle" x="99" y="-14.3" font-family="Times,serif" font-size="14.00" fill="#000000">b</text>
</g>
<!-- n5&#45;&#45;l4 -->
<g id="edge8" class="edge">
<title>n5&#45;&#45;l4</title>
<path fill="none" stroke="#000000" d="M71.8989,-72.2022C77.3958,-61.2085 84.4293,-47.1413 89.9534,-36.0931"/>
</g>
</g>
</svg>
