<?xml version="1.0" encoding="UTF-8" standalone="no"?>
<!DOCTYPE svg PUBLIC "-//W3C//DTD SVG 1.1//EN"
 "http://www.w3.org/Graphics/SVG/1.1/DTD/svg11.dtd">
<!-- Generated by graphviz version 2.40.1 (20161225.0304)
 -->
<!-- Title: TREE Pages: 1 -->
<svg width="367pt" height="188pt"
 viewBox="0.00 0.00 367.00 188.00" xmlns="http://www.w3.org/2000/svg" xmlns:xlink="http://www.w3.org/1999/xlink">
<g id="graph0" class="graph" transform="scale(1 1) rotate(0) translate(4 184)">
<title>TREE</title>
<polygon fill="#ffffff" stroke="transparent" points="-4,4 -4,-184 363,-184 363,4 -4,4"/>
<!-- n1 -->
<g id="node1" class="node">
<title>n1</title>
<ellipse fill="none" stroke="#000000" cx="243" cy="-162" rx="32.4942" ry="18"/>
<text text-anchor="middle" x="243" y="-158.3" font-family="Times,serif" font-size="14.00" fill="#000000">ADD</text>
</g>
<!-- n2 -->
<g id="node2" class="node">
<title>n2</title>
<ellipse fill="none" stroke="#000000" cx="119" cy="-90" rx="43.5923" ry="18"/>
<text text-anchor="middle" x="119" y="-86.3" font-family="Times,serif" font-size="14.00" fill="#000000">TIMES</text>
</g>
<!-- n1&#45;&#45;n2 -->
<g id="edge1" class="edge">
<title>n1&#45;&#45;n2</title>
<path fill="none" stroke="#000000" d="M220.5445,-148.9613C199.0487,-136.4799 166.6683,-117.6784 144.2778,-104.6774"/>
</g>
<!-- n3 -->
<g id="node3" class="node">
<title>n3</title>
<ellipse fill="none" stroke="#000000" cx="243" cy="-90" rx="43.5923" ry="18"/>
<text text-anchor="middle" x="243" y="-86.3" font-family="Times,serif" font-size="14.00" fill="#000000">TIMES</text>
</g>
<!-- n1&#45;&#45;n3 -->
<g id="edge2" class="edge">
<title>n1&#45;&#45;n3</title>
<path fill="none" stroke="#000000" d="M243,-143.8314C243,-133 243,-119.2876 243,-108.4133"/>
</g>
<!-- l1 -->
<g id="node4" class="node">
<title>l1</title>
<polygon fill="none" stroke="#000000" points="359,-108 305,-108 305,-72 359,-72 359,-108"/>
<text text-anchor="middle" x="332" y="-86.3" font-family="Times,serif" font-size="14.00" fill="#000000">f</text>
</g>
<!-- n1&#45;&#45;l1 -->
<g id="edge3" class="edge">
<title>n1&#45;&#45;l1</title>
<path fill="none" stroke="#000000" d="M261.4409,-147.0816C275.3917,-135.7955 294.6183,-120.2414 309.4786,-108.2195"/>
</g>
<!-- l2 -->
<g id="node5" class="node">
<title>l2</title>
<polygon fill="none" stroke="#000000" points="54,-36 0,-36 0,0 54,0 54,-36"/>
<text text-anchor="middle" x="27" y="-14.3" font-family="Times,serif" font-size="14.00" fill="#000000">a</text>
</g>
<!-- n2&#45;&#45;l2 -->
<g id="edge4" class="edge">
<title>n2&#45;&#45;l2</title>
<path fill="none" stroke="#000000" d="M98.5822,-74.0209C84.2891,-62.835 65.1644,-47.8678 50.2786,-36.2181"/>
</g>
<!-- l3 -->
<g id="node6" class="node">
<title>l3</title>
<polygon fill="none" stroke="#000000" points="126,-36 72,-36 72,0 126,0 126,-36"/>
<text text-anchor="middle" x="99" y="-14.3" font-family="Times,serif" font-size="14.00" fill="#000000">b</text>
</g>
<!-- n2&#45;&#45;l3 -->
<g id="edge5" class="edge">
<title>n2&#45;&#45;l3</title>
<path fill="none" stroke="#000000" d="M113.9532,-71.8314C110.9445,-61 107.1354,-47.2876 104.1148,-36.4133"/>
</g>
<!-- l4 -->
<g id="node7" class="node">
<title>l4</title>
<polygon fill="none" stroke="#000000" points="198,-36 144,-36 144,0 198,0 198,-36"/>
<text text-anchor="middle" x="171" y="-14.3" font-family="Times,serif" font-size="14.00" fill="#000000">c</text>
</g>
<!-- n2&#45;&#45;l4 -->
<g id="edge6" class="edge">
<title>n2&#45;&#45;l4</title>
<path fill="none" stroke="#000000" d="M131.5877,-72.5708C139.5831,-61.5003 149.9086,-47.2034 157.9851,-36.0206"/>
</g>
<!-- l5 -->
<g id="node8" class="node">
<title>l5</title>
<polygon fill="none" stroke="#000000" points="270,-36 216,-36 216,0 270,0 270,-36"/>
<text text-anchor="middle" x="243" y="-14.3" font-family="Times,serif" font-size="14.00" fill="#000000">d</text>
</g>
<!-- n3&#45;&#45;l5 -->
<g id="edge7" class="edge">
<title>n3&#45;&#45;l5</title>
<path fill="none" stroke="#000000" d="M243,-71.8314C243,-61 243,-47.2876 243,-36.4133"/>
</g>
<!-- l6 -->
<g id="node9" class="node">
<title>l6</title>
<polygon fill="none" stroke="#000000" points="342,-36 288,-36 288,0 342,0 342,-36"/>
<text text-anchor="middle" x="315" y="-14.3" font-family="Times,serif" font-size="14.00" fill="#000000">e</text>
</g>
<!-- n3&#45;&#45;l6 -->
<g id="edge8" class="edge">
<title>n3&#45;&#45;l6</title>
<path fill="none" stroke="#000000" d="M259.6992,-73.3008C270.8325,-62.1675 285.4623,-47.5377 296.8778,-36.1222"/>
</g>
</g>
</svg>
