<?xml version="1.0" encoding="UTF-8" standalone="no"?>
<!DOCTYPE svg PUBLIC "-//W3C//DTD SVG 1.1//EN"
 "http://www.w3.org/Graphics/SVG/1.1/DTD/svg11.dtd">
<!-- Generated by graphviz version 2.42.3 (0)
 -->
<!-- Title: TREE Pages: 1 -->
<svg width="365pt" height="188pt"
 viewBox="0.00 0.00 365.00 188.00" xmlns="http://www.w3.org/2000/svg" xmlns:xlink="http://www.w3.org/1999/xlink">
<g id="graph0" class="graph" transform="scale(1 1) rotate(0) translate(4 184)">
<title>TREE</title>
<polygon fill="white" stroke="transparent" points="-4,4 -4,-184 361,-184 361,4 -4,4"/>
<!-- n1 -->
<g id="node1" class="node">
<title>n1</title>
<ellipse fill="none" stroke="black" cx="243" cy="-162" rx="31.7" ry="18"/>
<text text-anchor="middle" x="243" y="-158.3" font-family="Times,serif" font-size="14.00">ADD</text>
</g>
<!-- n2 -->
<g id="node2" class="node">
<title>n2</title>
<ellipse fill="none" stroke="black" cx="120" cy="-90" rx="42.49" ry="18"/>
<text text-anchor="middle" x="120" y="-86.3" font-family="Times,serif" font-size="14.00">TIMES</text>
</g>
<!-- n1&#45;&#45;n2 -->
<g id="edge1" class="edge">
<title>n1&#45;&#45;n2</title>
<path fill="none" stroke="black" d="M221.29,-148.65C199.78,-136.4 166.87,-117.67 144.44,-104.91"/>
</g>
<!-- n3 -->
<g id="node3" class="node">
<title>n3</title>
<ellipse fill="none" stroke="black" cx="243" cy="-90" rx="42.49" ry="18"/>
<text text-anchor="middle" x="243" y="-86.3" font-family="Times,serif" font-size="14.00">TIMES</text>
</g>
<!-- n1&#45;&#45;n3 -->
<g id="edge2" class="edge">
<title>n1&#45;&#45;n3</title>
<path fill="none" stroke="black" d="M243,-143.7C243,-132.85 243,-118.92 243,-108.1"/>
</g>
<!-- l1 -->
<g id="node4" class="node">
<title>l1</title>
<polygon fill="none" stroke="black" points="357,-108 303,-108 303,-72 357,-72 357,-108"/>
<text text-anchor="middle" x="330" y="-86.3" font-family="Times,serif" font-size="14.00">f</text>
</g>
<!-- n1&#45;&#45;l1 -->
<g id="edge3" class="edge">
<title>n1&#45;&#45;l1</title>
<path fill="none" stroke="black" d="M260.61,-146.83C274.51,-135.65 293.96,-120 308.73,-108.11"/>
</g>
<!-- l2 -->
<g id="node5" class="node">
<title>l2</title>
<polygon fill="none" stroke="black" points="54,-36 0,-36 0,0 54,0 54,-36"/>
<text text-anchor="middle" x="27" y="-14.3" font-family="Times,serif" font-size="14.00">a</text>
</g>
<!-- n2&#45;&#45;l2 -->
<g id="edge4" class="edge">
<title>n2&#45;&#45;l2</title>
<path fill="none" stroke="black" d="M99.82,-73.81C85.08,-62.71 65.07,-47.65 49.75,-36.13"/>
</g>
<!-- l3 -->
<g id="node6" class="node">
<title>l3</title>
<polygon fill="none" stroke="black" points="126,-36 72,-36 72,0 126,0 126,-36"/>
<text text-anchor="middle" x="99" y="-14.3" font-family="Times,serif" font-size="14.00">b</text>
</g>
<!-- n2&#45;&#45;l3 -->
<g id="edge5" class="edge">
<title>n2&#45;&#45;l3</title>
<path fill="none" stroke="black" d="M114.92,-72.05C111.66,-61.21 107.45,-47.18 104.18,-36.28"/>
</g>
<!-- l4 -->
<g id="node7" class="node">
<title>l4</title>
<polygon fill="none" stroke="black" points="198,-36 144,-36 144,0 198,0 198,-36"/>
<text text-anchor="middle" x="171" y="-14.3" font-family="Times,serif" font-size="14.00">c</text>
</g>
<!-- n2&#45;&#45;l4 -->
<g id="edge6" class="edge">
<title>n2&#45;&#45;l4</title>
<path fill="none" stroke="black" d="M132.09,-72.41C139.98,-61.58 150.27,-47.45 158.29,-36.45"/>
</g>
<!-- l5 -->
<g id="node8" class="node">
<title>l5</title>
<polygon fill="none" stroke="black" points="270,-36 216,-36 216,0 270,0 270,-36"/>
<text text-anchor="middle" x="243" y="-14.3" font-family="Times,serif" font-size="14.00">d</text>
</g>
<!-- n3&#45;&#45;l5 -->
<g id="edge7" class="edge">
<title>n3&#45;&#45;l5</title>
<path fill="none" stroke="black" d="M243,-71.7C243,-60.85 243,-46.92 243,-36.1"/>
</g>
<!-- l6 -->
<g id="node9" class="node">
<title>l6</title>
<polygon fill="none" stroke="black" points="342,-36 288,-36 288,0 342,0 342,-36"/>
<text text-anchor="middle" x="315" y="-14.3" font-family="Times,serif" font-size="14.00">e</text>
</g>
<!-- n3&#45;&#45;l6 -->
<g id="edge8" class="edge">
<title>n3&#45;&#45;l6</title>
<path fill="none" stroke="black" d="M259.34,-73.12C270.71,-62.06 285.85,-47.34 297.47,-36.04"/>
</g>
</g>
</svg>
