<?xml version="1.0" encoding="UTF-8" standalone="no"?>
<!DOCTYPE svg PUBLIC "-//W3C//DTD SVG 1.1//EN"
 "http://www.w3.org/Graphics/SVG/1.1/DTD/svg11.dtd">
<!-- Generated by graphviz version 2.42.3 (0)
 -->
<!-- Title: TREE Pages: 1 -->
<svg width="406pt" height="332pt"
 viewBox="0.00 0.00 406.00 332.00" xmlns="http://www.w3.org/2000/svg" xmlns:xlink="http://www.w3.org/1999/xlink">
<g id="graph0" class="graph" transform="scale(1 1) rotate(0) translate(4 328)">
<title>TREE</title>
<polygon fill="white" stroke="transparent" points="-4,4 -4,-328 402,-328 402,4 -4,4"/>
<!-- n1 -->
<g id="node1" class="node">
<title>n1</title>
<ellipse fill="none" stroke="black" cx="224" cy="-306" rx="31.7" ry="18"/>
<text text-anchor="middle" x="224" y="-302.3" font-family="Times,serif" font-size="14.00">ADD</text>
</g>
<!-- n2 -->
<g id="node2" class="node">
<title>n2</title>
<ellipse fill="none" stroke="black" cx="171" cy="-234" rx="46.29" ry="18"/>
<text text-anchor="middle" x="171" y="-230.3" font-family="Times,serif" font-size="14.00">GROUP</text>
</g>
<!-- n1&#45;&#45;n2 -->
<g id="edge1" class="edge">
<title>n1&#45;&#45;n2</title>
<path fill="none" stroke="black" d="M211.97,-289.12C203.54,-277.98 192.3,-263.13 183.72,-251.8"/>
</g>
<!-- n3 -->
<g id="node3" class="node">
<title>n3</title>
<ellipse fill="none" stroke="black" cx="288" cy="-234" rx="42.49" ry="18"/>
<text text-anchor="middle" x="288" y="-230.3" font-family="Times,serif" font-size="14.00">TIMES</text>
</g>
<!-- n1&#45;&#45;n3 -->
<g id="edge2" class="edge">
<title>n1&#45;&#45;n3</title>
<path fill="none" stroke="black" d="M238.2,-289.46C248.66,-278.03 262.84,-262.52 273.39,-250.98"/>
</g>
<!-- n4 -->
<g id="node4" class="node">
<title>n4</title>
<ellipse fill="none" stroke="black" cx="150" cy="-162" rx="31.7" ry="18"/>
<text text-anchor="middle" x="150" y="-158.3" font-family="Times,serif" font-size="14.00">ADD</text>
</g>
<!-- n2&#45;&#45;n4 -->
<g id="edge3" class="edge">
<title>n2&#45;&#45;n4</title>
<path fill="none" stroke="black" d="M165.92,-216.05C162.61,-205.05 158.33,-190.76 155.04,-179.79"/>
</g>
<!-- l5 -->
<g id="node10" class="node">
<title>l5</title>
<polygon fill="none" stroke="black" points="254,-180 200,-180 200,-144 254,-144 254,-180"/>
<text text-anchor="middle" x="227" y="-158.3" font-family="Times,serif" font-size="14.00">e</text>
</g>
<!-- n3&#45;&#45;l5 -->
<g id="edge9" class="edge">
<title>n3&#45;&#45;l5</title>
<path fill="none" stroke="black" d="M273.85,-216.76C264.28,-205.78 251.65,-191.29 241.92,-180.12"/>
</g>
<!-- l6 -->
<g id="node11" class="node">
<title>l6</title>
<polygon fill="none" stroke="black" points="326,-180 272,-180 272,-144 326,-144 326,-180"/>
<text text-anchor="middle" x="299" y="-158.3" font-family="Times,serif" font-size="14.00">f</text>
</g>
<!-- n3&#45;&#45;l6 -->
<g id="edge10" class="edge">
<title>n3&#45;&#45;l6</title>
<path fill="none" stroke="black" d="M290.72,-215.7C292.42,-204.85 294.61,-190.92 296.31,-180.1"/>
</g>
<!-- l7 -->
<g id="node12" class="node">
<title>l7</title>
<polygon fill="none" stroke="black" points="398,-180 344,-180 344,-144 398,-144 398,-180"/>
<text text-anchor="middle" x="371" y="-158.3" font-family="Times,serif" font-size="14.00">g</text>
</g>
<!-- n3&#45;&#45;l7 -->
<g id="edge11" class="edge">
<title>n3&#45;&#45;l7</title>
<path fill="none" stroke="black" d="M306.42,-217.46C319.51,-206.43 337.08,-191.61 350.59,-180.21"/>
</g>
<!-- n5 -->
<g id="node5" class="node">
<title>n5</title>
<ellipse fill="none" stroke="black" cx="63" cy="-90" rx="42.49" ry="18"/>
<text text-anchor="middle" x="63" y="-86.3" font-family="Times,serif" font-size="14.00">TIMES</text>
</g>
<!-- n4&#45;&#45;n5 -->
<g id="edge4" class="edge">
<title>n4&#45;&#45;n5</title>
<path fill="none" stroke="black" d="M132.39,-146.83C117.8,-135.09 97.08,-118.42 82.09,-106.36"/>
</g>
<!-- l1 -->
<g id="node6" class="node">
<title>l1</title>
<polygon fill="none" stroke="black" points="177,-108 123,-108 123,-72 177,-72 177,-108"/>
<text text-anchor="middle" x="150" y="-86.3" font-family="Times,serif" font-size="14.00">c</text>
</g>
<!-- n4&#45;&#45;l1 -->
<g id="edge5" class="edge">
<title>n4&#45;&#45;l1</title>
<path fill="none" stroke="black" d="M150,-143.7C150,-132.85 150,-118.92 150,-108.1"/>
</g>
<!-- l2 -->
<g id="node7" class="node">
<title>l2</title>
<polygon fill="none" stroke="black" points="249,-108 195,-108 195,-72 249,-72 249,-108"/>
<text text-anchor="middle" x="222" y="-86.3" font-family="Times,serif" font-size="14.00">d</text>
</g>
<!-- n4&#45;&#45;l2 -->
<g id="edge6" class="edge">
<title>n4&#45;&#45;l2</title>
<path fill="none" stroke="black" d="M165.27,-146.15C176.74,-135 192.48,-119.7 204.47,-108.04"/>
</g>
<!-- l3 -->
<g id="node8" class="node">
<title>l3</title>
<polygon fill="none" stroke="black" points="54,-36 0,-36 0,0 54,0 54,-36"/>
<text text-anchor="middle" x="27" y="-14.3" font-family="Times,serif" font-size="14.00">a</text>
</g>
<!-- n5&#45;&#45;l3 -->
<g id="edge7" class="edge">
<title>n5&#45;&#45;l3</title>
<path fill="none" stroke="black" d="M54.29,-72.05C48.71,-61.21 41.49,-47.18 35.88,-36.28"/>
</g>
<!-- l4 -->
<g id="node9" class="node">
<title>l4</title>
<polygon fill="none" stroke="black" points="126,-36 72,-36 72,0 126,0 126,-36"/>
<text text-anchor="middle" x="99" y="-14.3" font-family="Times,serif" font-size="14.00">b</text>
</g>
<!-- n5&#45;&#45;l4 -->
<g id="edge8" class="edge">
<title>n5&#45;&#45;l4</title>
<path fill="none" stroke="black" d="M71.71,-72.05C77.29,-61.21 84.51,-47.18 90.12,-36.28"/>
</g>
</g>
</svg>
