<?xml version="1.0" encoding="UTF-8" standalone="no"?>
<!-- Created with Inkscape (http://www.inkscape.org/) -->

<svg
   xmlns:dc="http://purl.org/dc/elements/1.1/"
   xmlns:cc="http://creativecommons.org/ns#"
   xmlns:rdf="http://www.w3.org/1999/02/22-rdf-syntax-ns#"
   xmlns:svg="http://www.w3.org/2000/svg"
   xmlns="http://www.w3.org/2000/svg"
   xmlns:sodipodi="http://sodipodi.sourceforge.net/DTD/sodipodi-0.dtd"
   xmlns:inkscape="http://www.inkscape.org/namespaces/inkscape"
   width="114mm"
   height="205mm"
   viewBox="0 0 403.93677 726.37782"
   id="svg2"
   version="1.1"
   inkscape:version="0.91 r13725"
   sodipodi:docname="hightree-no-number.svg">
  <defs
     id="defs4">
    <clipPath
       id="clipPath4150"
       clipPathUnits="userSpaceOnUse">
      <path
         style="clip-rule:evenodd"
         inkscape:connector-curvature="0"
         id="path4152"
         d="m 0,0 420,0 0,594.75 -420,0 L 0,0 Z" />
    </clipPath>
    <clipPath
       id="clipPath4162"
       clipPathUnits="userSpaceOnUse">
      <path
         style="clip-rule:evenodd"
         inkscape:connector-curvature="0"
         id="path4164"
         d="m 0,0 366,0 0,594.75 -366,0 L 0,0 Z" />
    </clipPath>
    <clipPath
       id="clipPath4196"
       clipPathUnits="userSpaceOnUse">
      <path
         style="clip-rule:evenodd"
         inkscape:connector-curvature="0"
         id="path4198"
         d="m 161.2995,20.275566 59.06757,0 0,70.288635 -59.06757,0 0,-70.288635 z" />
    </clipPath>
    <clipPath
       id="clipPath4214"
       clipPathUnits="userSpaceOnUse">
      <path
         style="clip-rule:evenodd"
         inkscape:connector-curvature="0"
         id="path4216"
         d="m 0,0 366,0 0,594.75 -366,0 L 0,0 Z" />
    </clipPath>
    <clipPath
       id="clipPath4228"
       clipPathUnits="userSpaceOnUse">
      <path
         style="clip-rule:evenodd"
         inkscape:connector-curvature="0"
         id="path4230"
         d="m 58.079002,137.87386 94.400458,0 0,70.28863 -94.400458,0 0,-70.28863 z" />
    </clipPath>
    <clipPath
       id="clipPath4246"
       clipPathUnits="userSpaceOnUse">
      <path
         style="clip-rule:evenodd"
         inkscape:connector-curvature="0"
         id="path4248"
         d="m 0,0 366,0 0,594.75 -366,0 L 0,0 Z" />
    </clipPath>
    <clipPath
       id="clipPath4260"
       clipPathUnits="userSpaceOnUse">
      <path
         style="clip-rule:evenodd"
         inkscape:connector-curvature="0"
         id="path4262"
         d="m 75.745453,255.47214 59.067567,0 0,70.28864 -59.067567,0 0,-70.28864 z" />
    </clipPath>
    <clipPath
       id="clipPath4278"
       clipPathUnits="userSpaceOnUse">
      <path
         style="clip-rule:evenodd"
         inkscape:connector-curvature="0"
         id="path4280"
         d="m 0,0 366,0 0,594.75 -366,0 L 0,0 Z" />
    </clipPath>
    <clipPath
       id="clipPath4292"
       clipPathUnits="userSpaceOnUse">
      <path
         style="clip-rule:evenodd"
         inkscape:connector-curvature="0"
         id="path4294"
         d="m 38.354637,373.07043 31.343697,0 0,70.28863 -31.343697,0 0,-70.28863 z" />
    </clipPath>
    <clipPath
       id="clipPath4310"
       clipPathUnits="userSpaceOnUse">
      <path
         style="clip-rule:evenodd"
         inkscape:connector-curvature="0"
         id="path4312"
         d="m 0,0 366,0 0,594.75 -366,0 L 0,0 Z" />
    </clipPath>
    <clipPath
       id="clipPath4324"
       clipPathUnits="userSpaceOnUse">
      <path
         style="clip-rule:evenodd"
         inkscape:connector-curvature="0"
         id="path4326"
         d="m 116.97772,373.07043 79.10852,0 0,70.28863 -79.10852,0 0,-70.28863 z" />
    </clipPath>
    <clipPath
       id="clipPath4342"
       clipPathUnits="userSpaceOnUse">
      <path
         style="clip-rule:evenodd"
         inkscape:connector-curvature="0"
         id="path4344"
         d="m 0,0 366,0 0,594.75 -366,0 L 0,0 Z" />
    </clipPath>
    <clipPath
       id="clipPath4356"
       clipPathUnits="userSpaceOnUse">
      <path
         style="clip-rule:evenodd"
         inkscape:connector-curvature="0"
         id="path4358"
         d="m 101.54859,490.66873 31.3437,0 0,70.28867 -31.3437,0 0,-70.28867 z" />
    </clipPath>
    <clipPath
       id="clipPath4374"
       clipPathUnits="userSpaceOnUse">
      <path
         style="clip-rule:evenodd"
         inkscape:connector-curvature="0"
         id="path4376"
         d="m 0,0 366,0 0,594.75 -366,0 L 0,0 Z" />
    </clipPath>
    <clipPath
       id="clipPath4388"
       clipPathUnits="userSpaceOnUse">
      <path
         style="clip-rule:evenodd"
         inkscape:connector-curvature="0"
         id="path4390"
         d="m 180.17168,490.66873 31.3437,0 0,70.28867 -31.3437,0 0,-70.28867 z" />
    </clipPath>
    <clipPath
       id="clipPath4406"
       clipPathUnits="userSpaceOnUse">
      <path
         style="clip-rule:evenodd"
         inkscape:connector-curvature="0"
         id="path4408"
         d="m 0,0 366,0 0,594.75 -366,0 L 0,0 Z" />
    </clipPath>
    <clipPath
       id="clipPath4420"
       clipPathUnits="userSpaceOnUse">
      <path
         style="clip-rule:evenodd"
         inkscape:connector-curvature="0"
         id="path4422"
         d="m 216.9926,137.87386 84.32194,0 0,70.28863 -84.32194,0 0,-70.28863 z" />
    </clipPath>
    <clipPath
       id="clipPath4438"
       clipPathUnits="userSpaceOnUse">
      <path
         style="clip-rule:evenodd"
         inkscape:connector-curvature="0"
         id="path4440"
         d="m 0,0 366,0 0,594.75 -366,0 L 0,0 Z" />
    </clipPath>
    <clipPath
       id="clipPath4452"
       clipPathUnits="userSpaceOnUse">
      <path
         style="clip-rule:evenodd"
         inkscape:connector-curvature="0"
         id="path4454"
         d="m 204.17018,255.47214 31.3437,0 0,70.28864 -31.3437,0 0,-70.28864 z" />
    </clipPath>
    <clipPath
       id="clipPath4470"
       clipPathUnits="userSpaceOnUse">
      <path
         style="clip-rule:evenodd"
         inkscape:connector-curvature="0"
         id="path4472"
         d="m 0,0 366,0 0,594.75 -366,0 L 0,0 Z" />
    </clipPath>
    <clipPath
       id="clipPath4484"
       clipPathUnits="userSpaceOnUse">
      <path
         style="clip-rule:evenodd"
         inkscape:connector-curvature="0"
         id="path4486"
         d="m 282.79327,255.47214 31.34369,0 0,70.28864 -31.34369,0 0,-70.28864 z" />
    </clipPath>
  </defs>
  <sodipodi:namedview
     id="base"
     pagecolor="#ffffff"
     bordercolor="#666666"
     borderopacity="1.0"
     inkscape:pageopacity="0.0"
     inkscape:pageshadow="2"
     inkscape:zoom="1.2745218"
     inkscape:cx="72.502794"
     inkscape:cy="359.84634"
     inkscape:document-units="px"
     inkscape:current-layer="layer1"
     showgrid="false"
     inkscape:window-width="1920"
     inkscape:window-height="1047"
     inkscape:window-x="1920"
     inkscape:window-y="0"
     inkscape:window-maximized="1" />
  <metadata
     id="metadata7">
    <rdf:RDF>
      <cc:Work
         rdf:about="">
        <dc:format>image/svg+xml</dc:format>
        <dc:type
           rdf:resource="http://purl.org/dc/dcmitype/StillImage" />
        <dc:title />
      </cc:Work>
    </rdf:RDF>
  </metadata>
  <g
     inkscape:label="Layer 1"
     inkscape:groupmode="layer"
     id="layer1"
     transform="translate(0,-325.98444)">
    <path
       inkscape:connector-curvature="0"
       id="path4168"
       style="fill:none;stroke:#333333;stroke-width:3.99999952;stroke-linecap:butt;stroke-linejoin:miter;stroke-miterlimit:10;stroke-dasharray:none;stroke-opacity:1"
       d="m 168.53877,429.6645 -61.58258,42.32417 0,21.12038" />
    <path
       inkscape:connector-curvature="0"
       id="path4170"
       style="fill:none;stroke:#333333;stroke-width:3.99999952;stroke-linecap:butt;stroke-linejoin:miter;stroke-miterlimit:10;stroke-dasharray:none;stroke-opacity:1"
       d="m 106.95619,597.86615 0,21.12038 0,21.12038" />
    <path
       inkscape:connector-curvature="0"
       id="path4172"
       style="fill:none;stroke:#000099;stroke-width:7.99999905;stroke-linecap:butt;stroke-linejoin:miter;stroke-miterlimit:10;stroke-dasharray:none;stroke-opacity:1"
       d="m 61.596214,744.52418 -18.705961,21.46021 0,21.12038" />
    <path
       inkscape:connector-curvature="0"
       id="path4174"
       style="fill:none;stroke:#000099;stroke-width:7.99999905;stroke-linecap:butt;stroke-linejoin:miter;stroke-miterlimit:10;stroke-dasharray:none;stroke-opacity:1"
       d="m 152.31617,744.52418 18.70596,21.46021 0,21.12038" />
    <path
       inkscape:connector-curvature="0"
       id="path4176"
       style="fill:none;stroke:#000099;stroke-width:7.99999905;stroke-linecap:butt;stroke-linejoin:miter;stroke-miterlimit:10;stroke-dasharray:none;stroke-opacity:1"
       d="m 136.00323,891.86187 -14.12053,21.12038 0,21.12038" />
    <path
       inkscape:connector-curvature="0"
       id="path4178"
       style="fill:none;stroke:#000099;stroke-width:7.99999905;stroke-linecap:butt;stroke-linejoin:miter;stroke-miterlimit:10;stroke-dasharray:none;stroke-opacity:1"
       d="m 206.04103,891.86187 14.12053,21.12038 0,21.12038" />
    <path
       inkscape:connector-curvature="0"
       id="path4180"
       style="fill:none;stroke:#333333;stroke-width:3.99999952;stroke-linecap:butt;stroke-linejoin:miter;stroke-miterlimit:10;stroke-dasharray:none;stroke-opacity:1"
       d="m 259.25873,437.52832 40.04038,34.46035 0,21.12038" />
    <path
       inkscape:connector-curvature="0"
       id="path4182"
       style="fill:none;stroke:#008800;stroke-width:7.99999905;stroke-linecap:butt;stroke-linejoin:miter;stroke-miterlimit:10;stroke-dasharray:none;stroke-opacity:1"
       d="m 264.28021,597.86615 -14.12052,21.12038 0,21.12038" />
    <path
       inkscape:connector-curvature="0"
       id="path4184"
       style="fill:none;stroke:#008800;stroke-width:7.99999905;stroke-linecap:butt;stroke-linejoin:miter;stroke-miterlimit:10;stroke-dasharray:none;stroke-opacity:1"
       d="m 334.31802,597.86615 14.12052,21.12038 0,21.12038" />
    <path
       inkscape:connector-curvature="0"
       id="path4188"
       style="fill:#ececff;fill-opacity:1;fill-rule:nonzero;stroke:none"
       d="m 172.76015,346.11118 82.2772,0 c 2.81425,0 4.22138,1.40803 4.22138,4.22408 l 0,96.30894 c 0,2.81605 -1.40713,4.22408 -4.22138,4.22408 l -82.2772,0 c -2.81425,0 -4.22138,-1.40803 -4.22138,-4.22408 l 0,-96.30894 c 0,-2.81605 1.40713,-4.22408 4.22138,-4.22408 z" />
    <path
       inkscape:connector-curvature="0"
       id="path4190"
       style="fill:none;stroke:#ccccff;stroke-width:3.99999952;stroke-linecap:butt;stroke-linejoin:miter;stroke-miterlimit:10;stroke-dasharray:none;stroke-opacity:1"
       d="m 172.76015,346.11118 82.2772,0 c 2.81425,0 4.22138,1.40803 4.22138,4.22408 l 0,96.30894 c 0,2.81605 -1.40713,4.22408 -4.22138,4.22408 l -82.2772,0 c -2.81425,0 -4.22138,-1.40803 -4.22138,-4.22408 l 0,-96.30894 c 0,-2.81605 1.40713,-4.22408 4.22138,-4.22408 z" />
    <text
       id="text4202"
       style="font-variant:normal;font-weight:normal;font-size:33.78179932px;font-family:Lato;-inkscape-font-specification:Lato-Regular;writing-mode:lr-tb;fill:#333333;fill-opacity:1;fill-rule:nonzero;stroke:none"
       transform="scale(0.99968,1.0003201)"
       x="176.32367"
       y="408.67435">
      <tspan
         id="tspan4204"
         sodipodi:role="line"
         y="408.67435"
         x="176.32367 199.19391 224.88495">ADD</tspan>
    </text>
    <g
       clip-path="url(#clipPath4214)"
       id="g4212"
       transform="matrix(1.25,0,0,1.25,-24.642855,329.21488)"
       style="stroke-width:3.19999962;stroke-miterlimit:10;stroke-dasharray:none">
      <g
         transform="matrix(0.67541975,0,0,0.67585224,105.27924,173.01817)"
         id="g4218"
         style="stroke-width:4.73627783;stroke-miterlimit:10;stroke-dasharray:none">
        <path
           inkscape:connector-curvature="0"
           id="path4220"
           style="fill:#ececff;fill-opacity:1;fill-rule:nonzero;stroke:none;stroke-width:4.73627783;stroke-miterlimit:10;stroke-dasharray:none"
           d="m -74.882813,-62 149.765626,0 c 3.333335,0 5,1.666668 5,5 l 0,114 c 0,3.333332 -1.666665,5 -5,5 l -149.765626,0 c -3.333335,0 -5,-1.666668 -5,-5 l 0,-114 c 0,-3.333332 1.666665,-5 5,-5 z" />
        <path
           inkscape:connector-curvature="0"
           id="path4222"
           style="fill:none;stroke:#ccccff;stroke-width:4.73627783;stroke-linecap:butt;stroke-linejoin:miter;stroke-miterlimit:10;stroke-dasharray:none;stroke-opacity:1"
           d="m -74.882813,-62 149.765626,0 c 3.333335,0 5,1.666668 5,5 l 0,114 c 0,3.333332 -1.666665,5 -5,5 l -149.765626,0 c -3.333335,0 -5,-1.666668 -5,-5 l 0,-114 c 0,-3.333332 1.666665,-5 5,-5 z" />
      </g>
    </g>
    <text
       id="text4234"
       style="font-variant:normal;font-weight:normal;font-size:33.78179932px;font-family:Lato;-inkscape-font-specification:Lato-Regular;writing-mode:lr-tb;fill:#333333;fill-opacity:1;fill-rule:nonzero;stroke:none"
       transform="scale(0.99968,1.0003201)"
       x="46.542233"
       y="557.05328">
      <tspan
         id="tspan4236"
         sodipodi:role="line"
         y="557.05328"
         x="46.542233 71.21978 92.096977 119.13927 143.98578">GROUP</tspan>
    </text>
    <g
       clip-path="url(#clipPath4246)"
       id="g4244"
       transform="matrix(1.25,0,0,1.25,-24.642855,329.21488)"
       style="stroke-width:6.39999924;stroke-miterlimit:10;stroke-dasharray:none">
      <g
         transform="matrix(0.67541975,0,0,0.67585224,105.27924,290.61646)"
         id="g4250"
         style="stroke-width:9.47255565;stroke-miterlimit:10;stroke-dasharray:none">
        <path
           inkscape:connector-curvature="0"
           id="path4252"
           style="fill:#ececff;fill-opacity:1;fill-rule:nonzero;stroke:none;stroke-width:9.47255565;stroke-miterlimit:10;stroke-dasharray:none"
           d="m -48.726563,-62 97.453126,0 c 3.333332,0 5,1.666668 5,5 l 0,114 c 0,3.333332 -1.666668,5 -5,5 l -97.453126,0 c -3.333332,0 -5,-1.666668 -5,-5 l 0,-114 c 0,-3.333332 1.666668,-5 5,-5 z" />
        <path
           inkscape:connector-curvature="0"
           id="path4254"
           style="fill:none;stroke:#000099;stroke-width:9.47255565;stroke-linecap:butt;stroke-linejoin:miter;stroke-miterlimit:10;stroke-dasharray:none;stroke-opacity:1"
           d="m -48.726563,-62 97.453126,0 c 3.333332,0 5,1.666668 5,5 l 0,114 c 0,3.333332 -1.666668,5 -5,5 l -97.453126,0 c -3.333332,0 -5,-1.666668 -5,-5 l 0,-114 c 0,-3.333332 1.666668,-5 5,-5 z" />
      </g>
    </g>
    <text
       id="text4266"
       style="font-variant:normal;font-weight:normal;font-size:33.78179932px;font-family:Lato;-inkscape-font-specification:Lato-Regular;writing-mode:lr-tb;fill:#333333;fill-opacity:1;fill-rule:nonzero;stroke:none"
       transform="scale(0.99968,1.0003201)"
       x="72.204948"
       y="701.86194">
      <tspan
         id="tspan4268"
         sodipodi:role="line"
         y="701.86194"
         x="72.204948 95.075188 120.76623">ADD</tspan>
    </text>
    <g
       clip-path="url(#clipPath4278)"
       id="g4276"
       transform="matrix(1.25,0,0,1.25,-24.642855,329.21488)"
       style="stroke-width:6.39999924;stroke-miterlimit:10;stroke-dasharray:none">
      <g
         transform="matrix(0.67541975,0,0,0.67585224,54.026485,408.21475)"
         id="g4282"
         style="stroke-width:9.47255565;stroke-miterlimit:10;stroke-dasharray:none">
        <path
           inkscape:connector-curvature="0"
           id="path4284"
           style="fill:#ececff;fill-opacity:1;fill-rule:nonzero;stroke:none;stroke-width:9.47255565;stroke-miterlimit:10;stroke-dasharray:none"
           d="m -28.203125,-62 56.40625,0 c 3.333334,0 5,1.666668 5,5 l 0,114 c 0,3.333332 -1.666666,5 -5,5 l -56.40625,0 c -3.333334,0 -5,-1.666668 -5,-5 l 0,-114 c 0,-3.333332 1.666666,-5 5,-5 z" />
        <path
           inkscape:connector-curvature="0"
           id="path4286"
           style="fill:none;stroke:#000099;stroke-width:9.47255565;stroke-linecap:butt;stroke-linejoin:miter;stroke-miterlimit:10;stroke-dasharray:none;stroke-opacity:1"
           d="m -28.203125,-62 56.40625,0 c 3.333334,0 5,1.666668 5,5 l 0,114 c 0,3.333332 -1.666666,5 -5,5 l -56.40625,0 c -3.333334,0 -5,-1.666668 -5,-5 l 0,-114 c 0,-3.333332 1.666666,-5 5,-5 z" />
      </g>
    </g>
    <text
       id="text4298"
       style="font-variant:normal;font-weight:normal;font-size:33.78179932px;font-family:Lato;-inkscape-font-specification:Lato-Regular;writing-mode:lr-tb;fill:#333333;fill-opacity:1;fill-rule:nonzero;stroke:none"
       transform="scale(0.99968,1.0003201)"
       x="29.738522"
       y="850.24078">
      <tspan
         id="tspan4300"
         y="850.24078"
         x="29.738522">a</tspan>
    </text>
    <g
       clip-path="url(#clipPath4310)"
       id="g4308"
       transform="matrix(1.25,0,0,1.25,-24.642855,329.21488)"
       style="stroke-width:6.39999924;stroke-miterlimit:10;stroke-dasharray:none">
      <g
         transform="matrix(0.67541975,0,0,0.67585224,156.53198,408.21475)"
         id="g4314"
         style="stroke-width:9.47255565;stroke-miterlimit:10;stroke-dasharray:none">
        <path
           inkscape:connector-curvature="0"
           id="path4316"
           style="fill:#ececff;fill-opacity:1;fill-rule:nonzero;stroke:none;stroke-width:9.47255565;stroke-miterlimit:10;stroke-dasharray:none"
           d="m -63.5625,-62 127.125,0 c 3.333336,0 5,1.666668 5,5 l 0,114 c 0,3.333332 -1.666664,5 -5,5 l -127.125,0 c -3.333336,0 -5,-1.666668 -5,-5 l 0,-114 c 0,-3.333332 1.666664,-5 5,-5 z" />
        <path
           inkscape:connector-curvature="0"
           id="path4318"
           style="fill:none;stroke:#000099;stroke-width:9.47255565;stroke-linecap:butt;stroke-linejoin:miter;stroke-miterlimit:10;stroke-dasharray:none;stroke-opacity:1"
           d="m -63.5625,-62 127.125,0 c 3.333336,0 5,1.666668 5,5 l 0,114 c 0,3.333332 -1.666664,5 -5,5 l -127.125,0 c -3.333336,0 -5,-1.666668 -5,-5 l 0,-114 c 0,-3.333332 1.666664,-5 5,-5 z" />
      </g>
    </g>
    <text
       id="text4330"
       style="font-variant:normal;font-weight:normal;font-size:33.78179932px;font-family:Lato;-inkscape-font-specification:Lato-Regular;writing-mode:lr-tb;fill:#333333;fill-opacity:1;fill-rule:nonzero;stroke:none"
       transform="scale(0.99968,1.0003201)"
       x="122.33276"
       y="849.52673">
      <tspan
         id="tspan4332"
         sodipodi:role="line"
         y="849.52673"
         x="122.33276 142.28088 151.73981 183.10614 202.61511">TIMES</tspan>
    </text>
    <g
       clip-path="url(#clipPath4342)"
       id="g4340"
       transform="matrix(1.25,0,0,1.25,-24.642855,329.21488)"
       style="stroke-width:6.39999924;stroke-miterlimit:10;stroke-dasharray:none">
      <g
         transform="matrix(0.67541975,0,0,0.67585224,117.22044,525.81305)"
         id="g4346"
         style="stroke-width:9.47255565;stroke-miterlimit:10;stroke-dasharray:none">
        <path
           inkscape:connector-curvature="0"
           id="path4348"
           style="fill:#ececff;fill-opacity:1;fill-rule:nonzero;stroke:none;stroke-width:9.47255565;stroke-miterlimit:10;stroke-dasharray:none"
           d="m -28.203125,-62 56.40625,0 c 3.333334,0 5,1.666668 5,5 l 0,114 c 0,3.333332 -1.666666,5 -5,5 l -56.40625,0 c -3.333334,0 -5,-1.666668 -5,-5 l 0,-114 c 0,-3.333332 1.666666,-5 5,-5 z" />
        <path
           inkscape:connector-curvature="0"
           id="path4350"
           style="fill:none;stroke:#000099;stroke-width:9.47255565;stroke-linecap:butt;stroke-linejoin:miter;stroke-miterlimit:10;stroke-dasharray:none;stroke-opacity:1"
           d="m -28.203125,-62 56.40625,0 c 3.333334,0 5,1.666668 5,5 l 0,114 c 0,3.333332 -1.666666,5 -5,5 l -56.40625,0 c -3.333334,0 -5,-1.666668 -5,-5 l 0,-114 c 0,-3.333332 1.666666,-5 5,-5 z" />
      </g>
    </g>
    <g
       clip-path="url(#clipPath4356)"
       id="g4354"
       transform="matrix(1.25,0,0,1.25,-24.642855,329.21488)">
      <text
         transform="scale(0.99968,1.0003201)"
         style="font-variant:normal;font-weight:normal;font-size:27.02543831px;font-family:Lato;-inkscape-font-specification:Lato-Regular;writing-mode:lr-tb;fill:#333333;fill-opacity:1;fill-rule:nonzero;stroke:none"
         id="text4362"
         x="108.44044"
         y="536.75067">
        <tspan
           x="108.44044"
           y="536.75067"
           id="tspan4364">b</tspan>
      </text>
    </g>
    <g
       clip-path="url(#clipPath4374)"
       id="g4372"
       transform="matrix(1.25,0,0,1.25,-24.642855,329.21488)"
       style="stroke-width:6.39999924;stroke-miterlimit:10;stroke-dasharray:none">
      <g
         transform="matrix(0.67541975,0,0,0.67585224,195.84352,525.81305)"
         id="g4378"
         style="stroke-width:9.47255565;stroke-miterlimit:10;stroke-dasharray:none">
        <path
           inkscape:connector-curvature="0"
           id="path4380"
           style="fill:#ececff;fill-opacity:1;fill-rule:nonzero;stroke:none;stroke-width:9.47255565;stroke-miterlimit:10;stroke-dasharray:none"
           d="m -28.203125,-62 56.40625,0 c 3.333334,0 5,1.666668 5,5 l 0,114 c 0,3.333332 -1.666666,5 -5,5 l -56.40625,0 c -3.333334,0 -5,-1.666668 -5,-5 l 0,-114 c 0,-3.333332 1.666666,-5 5,-5 z" />
        <path
           inkscape:connector-curvature="0"
           id="path4382"
           style="fill:none;stroke:#000099;stroke-width:9.47255565;stroke-linecap:butt;stroke-linejoin:miter;stroke-miterlimit:10;stroke-dasharray:none;stroke-opacity:1"
           d="m -28.203125,-62 56.40625,0 c 3.333334,0 5,1.666668 5,5 l 0,114 c 0,3.333332 -1.666666,5 -5,5 l -56.40625,0 c -3.333334,0 -5,-1.666668 -5,-5 l 0,-114 c 0,-3.333332 1.666666,-5 5,-5 z" />
      </g>
    </g>
    <g
       clip-path="url(#clipPath4388)"
       id="g4386"
       transform="matrix(1.25,0,0,1.25,-13.928575,351.35774)">
      <g
         transform="matrix(0.67541975,0,0,0.67585224,180.17168,490.66873)"
         id="g4392">
        <text
           id="text4394"
           style="font-variant:normal;font-weight:normal;font-size:40px;font-family:Lato;-inkscape-font-specification:Lato-Regular;writing-mode:lr-tb;fill:#333333;fill-opacity:1;fill-rule:nonzero;stroke:none"
           transform="translate(0,38)">
          <tspan
             id="tspan4396"
             y="0"
             x="0">c</tspan>
        </text>
      </g>
    </g>
    <g
       clip-path="url(#clipPath4406)"
       id="g4404"
       transform="matrix(1.25,0,0,1.25,-24.642855,329.21488)"
       style="stroke-width:6.39999924;stroke-miterlimit:10;stroke-dasharray:none">
      <g
         transform="matrix(0.67541975,0,0,0.67585224,259.15356,173.01817)"
         id="g4410"
         style="stroke-width:9.47255565;stroke-miterlimit:10;stroke-dasharray:none">
        <path
           inkscape:connector-curvature="0"
           id="path4412"
           style="fill:#ececff;fill-opacity:1;fill-rule:nonzero;stroke:none;stroke-width:9.47255565;stroke-miterlimit:10;stroke-dasharray:none"
           d="m -67.421875,-62 134.84375,0 c 3.333336,0 5,1.666668 5,5 l 0,114 c 0,3.333332 -1.666664,5 -5,5 l -134.84375,0 c -3.333336,0 -5,-1.666668 -5,-5 l 0,-114 c 0,-3.333332 1.666664,-5 5,-5 z" />
        <path
           inkscape:connector-curvature="0"
           id="path4414"
           style="fill:none;stroke:#008800;stroke-width:9.47255565;stroke-linecap:butt;stroke-linejoin:miter;stroke-miterlimit:10;stroke-dasharray:none;stroke-opacity:1"
           d="m -67.421875,-62 134.84375,0 c 3.333336,0 5,1.666668 5,5 l 0,114 c 0,3.333332 -1.666664,5 -5,5 l -134.84375,0 c -3.333336,0 -5,-1.666668 -5,-5 l 0,-114 c 0,-3.333332 1.666664,-5 5,-5 z" />
      </g>
    </g>
    <text
       id="text4426"
       style="font-variant:normal;font-weight:normal;font-size:33.78179932px;font-family:Lato;-inkscape-font-specification:Lato-Regular;writing-mode:lr-tb;fill:#333333;fill-opacity:1;fill-rule:nonzero;stroke:none"
       transform="scale(0.99968,1.0003201)"
       x="250.24939"
       y="555.62518">
      <tspan
         id="tspan4428"
         sodipodi:role="line"
         y="555.62518"
         x="250.24939 270.19757 279.65643 311.02283 330.5318 348.8584">TIMES</tspan>
    </text>
    <g
       clip-path="url(#clipPath4438)"
       id="g4436"
       transform="matrix(1.25,0,0,1.25,-24.642855,329.21488)"
       style="stroke-width:6.39999924;stroke-miterlimit:10;stroke-dasharray:none">
      <g
         transform="matrix(0.67541975,0,0,0.67585224,219.84203,290.61646)"
         id="g4442"
         style="stroke-width:9.47255565;stroke-miterlimit:10;stroke-dasharray:none">
        <path
           inkscape:connector-curvature="0"
           id="path4444"
           style="fill:#ececff;fill-opacity:1;fill-rule:nonzero;stroke:none;stroke-width:9.47255565;stroke-miterlimit:10;stroke-dasharray:none"
           d="m -28.203125,-62 56.40625,0 c 3.333334,0 5,1.666668 5,5 l 0,114 c 0,3.333332 -1.666666,5 -5,5 l -56.40625,0 c -3.333334,0 -5,-1.666668 -5,-5 l 0,-114 c 0,-3.333332 1.666666,-5 5,-5 z" />
        <path
           inkscape:connector-curvature="0"
           id="path4446"
           style="fill:none;stroke:#008800;stroke-width:9.47255565;stroke-linecap:butt;stroke-linejoin:miter;stroke-miterlimit:10;stroke-dasharray:none;stroke-opacity:1"
           d="m -28.203125,-62 56.40625,0 c 3.333334,0 5,1.666668 5,5 l 0,114 c 0,3.333332 -1.666666,5 -5,5 l -56.40625,0 c -3.333334,0 -5,-1.666668 -5,-5 l 0,-114 c 0,-3.333332 1.666666,-5 5,-5 z" />
      </g>
    </g>
    <text
       id="text4458"
       style="font-variant:normal;font-weight:normal;font-size:33.78179932px;font-family:Lato;-inkscape-font-specification:Lato-Regular;writing-mode:lr-tb;fill:#333333;fill-opacity:1;fill-rule:nonzero;stroke:none"
       transform="scale(0.99968,1.0003201)"
       x="241.36139"
       y="699.71973">
      <tspan
         id="tspan4460"
         y="699.71973"
         x="241.36139">x</tspan>
    </text>
    <g
       clip-path="url(#clipPath4470)"
       id="g4468"
       transform="matrix(1.25,0,0,1.25,-24.642855,329.21488)"
       style="stroke-width:6.39999924;stroke-miterlimit:10;stroke-dasharray:none">
      <g
         transform="matrix(0.67541975,0,0,0.67585224,298.46512,290.61646)"
         id="g4474"
         style="stroke-width:9.47255565;stroke-miterlimit:10;stroke-dasharray:none">
        <path
           inkscape:connector-curvature="0"
           id="path4476"
           style="fill:#ececff;fill-opacity:1;fill-rule:nonzero;stroke:none;stroke-width:9.47255565;stroke-miterlimit:10;stroke-dasharray:none"
           d="m -28.203125,-62 56.40625,0 c 3.333334,0 5,1.666668 5,5 l 0,114 c 0,3.333332 -1.666666,5 -5,5 l -56.40625,0 c -3.333334,0 -5,-1.666668 -5,-5 l 0,-114 c 0,-3.333332 1.666666,-5 5,-5 z" />
        <path
           inkscape:connector-curvature="0"
           id="path4478"
           style="fill:none;stroke:#008800;stroke-width:9.47255565;stroke-linecap:butt;stroke-linejoin:miter;stroke-miterlimit:10;stroke-dasharray:none;stroke-opacity:1"
           d="m -28.203125,-62 56.40625,0 c 3.333334,0 5,1.666668 5,5 l 0,114 c 0,3.333332 -1.666666,5 -5,5 l -56.40625,0 c -3.333334,0 -5,-1.666668 -5,-5 l 0,-114 c 0,-3.333332 1.666666,-5 5,-5 z" />
      </g>
    </g>
    <text
       id="text4490"
       style="font-variant:normal;font-weight:normal;font-size:33.78179932px;font-family:Lato;-inkscape-font-specification:Lato-Regular;writing-mode:lr-tb;fill:#333333;fill-opacity:1;fill-rule:nonzero;stroke:none"
       transform="scale(0.99968,1.0003201)"
       x="341.10077"
       y="699.71973">
      <tspan
         id="tspan4492"
         y="699.71973"
         x="341.10077">y</tspan>
    </text>
  </g>
</svg>
