<?xml version="1.0" encoding="UTF-8" standalone="no"?>
<!-- Created with Inkscape (http://www.inkscape.org/) -->

<svg
   xmlns:dc="http://purl.org/dc/elements/1.1/"
   xmlns:cc="http://creativecommons.org/ns#"
   xmlns:rdf="http://www.w3.org/1999/02/22-rdf-syntax-ns#"
   xmlns:svg="http://www.w3.org/2000/svg"
   xmlns="http://www.w3.org/2000/svg"
   xmlns:sodipodi="http://sodipodi.sourceforge.net/DTD/sodipodi-0.dtd"
   xmlns:inkscape="http://www.inkscape.org/namespaces/inkscape"
   width="151mm"
   height="139mm"
   viewBox="0 0 535.0392 492.5194"
   id="svg2"
   version="1.1"
   inkscape:version="0.91 r13725"
   sodipodi:docname="lowtree-no-number.svg">
  <defs
     id="defs4">
    <clipPath
       id="clipPath4150"
       clipPathUnits="userSpaceOnUse">
      <path
         style="clip-rule:evenodd"
         inkscape:connector-curvature="0"
         id="path4152"
         d="m 0,0 420,0 0,594.75 -420,0 L 0,0 Z" />
    </clipPath>
    <clipPath
       id="clipPath4184"
       clipPathUnits="userSpaceOnUse">
      <path
         style="clip-rule:evenodd"
         inkscape:connector-curvature="0"
         id="path4186"
         d="m 118.97963,123.23203 64.53113,0 0,76.74096 -64.53113,0 0,-76.74096 z" />
    </clipPath>
    <clipPath
       id="clipPath4202"
       clipPathUnits="userSpaceOnUse">
      <path
         style="clip-rule:evenodd"
         inkscape:connector-curvature="0"
         id="path4204"
         d="m 0,0 420,0 0,594.75 -420,0 L 0,0 Z" />
    </clipPath>
    <clipPath
       id="clipPath4216"
       clipPathUnits="userSpaceOnUse">
      <path
         style="clip-rule:evenodd"
         inkscape:connector-curvature="0"
         id="path4218"
         d="m 22.136818,251.62558 34.242889,0 0,76.74097 -34.242889,0 0,-76.74097 z" />
    </clipPath>
    <clipPath
       id="clipPath4234"
       clipPathUnits="userSpaceOnUse">
      <path
         style="clip-rule:evenodd"
         inkscape:connector-curvature="0"
         id="path4236"
         d="m 0,0 420,0 0,594.75 -420,0 L 0,0 Z" />
    </clipPath>
    <clipPath
       id="clipPath4248"
       clipPathUnits="userSpaceOnUse">
      <path
         style="clip-rule:evenodd"
         inkscape:connector-curvature="0"
         id="path4250"
         d="m 108.03228,251.62558 86.42582,0 0,76.74097 -86.42582,0 0,-76.74097 z" />
    </clipPath>
    <clipPath
       id="clipPath4266"
       clipPathUnits="userSpaceOnUse">
      <path
         style="clip-rule:evenodd"
         inkscape:connector-curvature="0"
         id="path4268"
         d="m 0,0 420,0 0,594.75 -420,0 L 0,0 Z" />
    </clipPath>
    <clipPath
       id="clipPath4280"
       clipPathUnits="userSpaceOnUse">
      <path
         style="clip-rule:evenodd"
         inkscape:connector-curvature="0"
         id="path4282"
         d="m 91.176018,380.01913 34.242892,0 0,76.74097 -34.242892,0 0,-76.74097 z" />
    </clipPath>
    <clipPath
       id="clipPath4298"
       clipPathUnits="userSpaceOnUse">
      <path
         style="clip-rule:evenodd"
         inkscape:connector-curvature="0"
         id="path4300"
         d="m 0,0 420,0 0,594.75 -420,0 L 0,0 Z" />
    </clipPath>
    <clipPath
       id="clipPath4312"
       clipPathUnits="userSpaceOnUse">
      <path
         style="clip-rule:evenodd"
         inkscape:connector-curvature="0"
         id="path4314"
         d="m 177.07149,380.01913 34.24289,0 0,76.74097 -34.24289,0 0,-76.74097 z" />
    </clipPath>
    <clipPath
       id="clipPath4330"
       clipPathUnits="userSpaceOnUse">
      <path
         style="clip-rule:evenodd"
         inkscape:connector-curvature="0"
         id="path4332"
         d="m 0,0 420,0 0,594.75 -420,0 L 0,0 Z" />
    </clipPath>
    <clipPath
       id="clipPath4344"
       clipPathUnits="userSpaceOnUse">
      <path
         style="clip-rule:evenodd"
         inkscape:connector-curvature="0"
         id="path4346"
         d="m 276.9754,251.62558 92.12146,0 0,76.74097 -92.12146,0 0,-76.74097 z" />
    </clipPath>
    <clipPath
       id="clipPath4362"
       clipPathUnits="userSpaceOnUse">
      <path
         style="clip-rule:evenodd"
         inkscape:connector-curvature="0"
         id="path4364"
         d="m 0,0 420,0 0,594.75 -420,0 L 0,0 Z" />
    </clipPath>
    <clipPath
       id="clipPath4376"
       clipPathUnits="userSpaceOnUse">
      <path
         style="clip-rule:evenodd"
         inkscape:connector-curvature="0"
         id="path4378"
         d="m 262.96698,380.01913 34.24289,0 0,76.74097 -34.24289,0 0,-76.74097 z" />
    </clipPath>
    <clipPath
       id="clipPath4394"
       clipPathUnits="userSpaceOnUse">
      <path
         style="clip-rule:evenodd"
         inkscape:connector-curvature="0"
         id="path4396"
         d="m 0,0 420,0 0,594.75 -420,0 L 0,0 Z" />
    </clipPath>
    <clipPath
       id="clipPath4408"
       clipPathUnits="userSpaceOnUse">
      <path
         style="clip-rule:evenodd"
         inkscape:connector-curvature="0"
         id="path4410"
         d="m 348.86243,380.01913 34.24289,0 0,76.74097 -34.24289,0 0,-76.74097 z" />
    </clipPath>
  </defs>
  <sodipodi:namedview
     id="base"
     pagecolor="#ffffff"
     bordercolor="#666666"
     borderopacity="1.0"
     inkscape:pageopacity="0.0"
     inkscape:pageshadow="2"
     inkscape:zoom="0.98994949"
     inkscape:cx="-34.927567"
     inkscape:cy="94.774491"
     inkscape:document-units="px"
     inkscape:current-layer="layer1"
     showgrid="false"
     inkscape:window-width="1920"
     inkscape:window-height="1047"
     inkscape:window-x="1920"
     inkscape:window-y="0"
     inkscape:window-maximized="1" />
  <metadata
     id="metadata7">
    <rdf:RDF>
      <cc:Work
         rdf:about="">
        <dc:format>image/svg+xml</dc:format>
        <dc:type
           rdf:resource="http://purl.org/dc/dcmitype/StillImage" />
        <dc:title />
      </cc:Work>
    </rdf:RDF>
  </metadata>
  <g
     inkscape:label="Layer 1"
     inkscape:groupmode="layer"
     id="layer1"
     transform="translate(0,-559.8429)">
    <path
       inkscape:connector-curvature="0"
       id="path4160"
       style="fill:none;stroke:#000099;stroke-width:7.99999714;stroke-linecap:butt;stroke-linejoin:miter;stroke-miterlimit:10;stroke-dasharray:none;stroke-opacity:1"
       d="m 149.85802,678.19734 -90.428048,51.83808 0,23.05919" />
    <path
       inkscape:connector-curvature="0"
       id="path4162"
       style="fill:none;stroke:#000099;stroke-width:7.99999714;stroke-linecap:butt;stroke-linejoin:miter;stroke-miterlimit:10;stroke-dasharray:none;stroke-opacity:1"
       d="m 199.41365,706.97624 0,23.05918 0,23.05919" />
    <path
       inkscape:connector-curvature="0"
       id="path4164"
       style="fill:none;stroke:#000099;stroke-width:7.99999714;stroke-linecap:butt;stroke-linejoin:miter;stroke-miterlimit:10;stroke-dasharray:none;stroke-opacity:1"
       d="m 161.15561,867.46817 -15.42663,23.05919 0,23.05918" />
    <path
       inkscape:connector-curvature="0"
       id="path4166"
       style="fill:none;stroke:#000099;stroke-width:7.99999714;stroke-linecap:butt;stroke-linejoin:miter;stroke-miterlimit:10;stroke-dasharray:none;stroke-opacity:1"
       d="m 237.67169,867.46817 15.42663,23.05919 0,23.05918" />
    <path
       inkscape:connector-curvature="0"
       id="path4168"
       style="fill:none;stroke:#333333;stroke-width:3.99999857;stroke-linecap:butt;stroke-linejoin:miter;stroke-miterlimit:10;stroke-dasharray:none;stroke-opacity:1"
       d="m 248.96928,668.30797 165.18303,61.72745 0,23.05919" />
    <path
       inkscape:connector-curvature="0"
       id="path4170"
       style="fill:none;stroke:#008800;stroke-width:7.99999714;stroke-linecap:butt;stroke-linejoin:miter;stroke-miterlimit:10;stroke-dasharray:none;stroke-opacity:1"
       d="m 375.89427,867.46817 -15.42662,23.05919 0,23.05918" />
    <path
       inkscape:connector-curvature="0"
       id="path4172"
       style="fill:none;stroke:#008800;stroke-width:7.99999714;stroke-linecap:butt;stroke-linejoin:miter;stroke-miterlimit:10;stroke-dasharray:none;stroke-opacity:1"
       d="m 452.41035,867.46817 15.42663,23.05919 0,23.05918" />
    <path
       inkscape:connector-curvature="0"
       id="path4176"
       style="fill:#ececff;fill-opacity:1;fill-rule:nonzero;stroke:none"
       d="m 154.46985,592.60267 89.88758,0 c 3.07456,0 4.61184,1.53728 4.61184,4.61184 l 0,105.14988 c 0,3.07456 -1.53728,4.61184 -4.61184,4.61184 l -89.88758,0 c -3.07456,0 -4.61184,-1.53728 -4.61184,-4.61184 l 0,-105.14988 c 0,-3.07456 1.53728,-4.61184 4.61184,-4.61184 z" />
    <path
       inkscape:connector-curvature="0"
       id="path4178"
       style="fill:none;stroke:#000099;stroke-width:7.99999714;stroke-linecap:butt;stroke-linejoin:miter;stroke-miterlimit:8;stroke-dasharray:none;stroke-opacity:1"
       d="m 154.46985,592.60267 89.88758,0 c 3.07456,0 4.61184,1.53728 4.61184,4.61184 l 0,105.14988 c 0,3.07456 -1.53728,4.61184 -4.61184,4.61184 l -89.88758,0 c -3.07456,0 -4.61184,-1.53728 -4.61184,-4.61184 l 0,-105.14988 c 0,-3.07456 1.53728,-4.61184 4.61184,-4.61184 z" />
    <text
       id="text4190"
       style="font-variant:normal;font-weight:normal;font-size:36.89469528px;font-family:Lato;-inkscape-font-specification:Lato-Regular;writing-mode:lr-tb;fill:#333333;fill-opacity:1;fill-rule:nonzero;stroke:none"
       x="158.57658"
       y="660.10986">
      <tspan
         id="tspan4192"
         sodipodi:role="line"
         y="660.10986"
         x="158.57658 183.55428 211.61266">ADD</tspan>
    </text>
    <path
       inkscape:connector-curvature="0"
       id="path4208"
       style="fill:#ececff;fill-opacity:1;fill-rule:nonzero;stroke:none"
       d="m 33.416328,753.0946 52.027284,0 c 3.07456,0 4.61184,1.53728 4.61184,4.61184 l 0,105.14988 c 0,3.07456 -1.53728,4.61184 -4.61184,4.61184 l -52.027284,0 c -3.074558,0 -4.611837,-1.53728 -4.611837,-4.61184 l 0,-105.14988 c 0,-3.07456 1.537279,-4.61184 4.611837,-4.61184 z" />
    <path
       inkscape:connector-curvature="0"
       id="path4210"
       style="fill:none;stroke:#000099;stroke-width:7.99999714;stroke-linecap:butt;stroke-linejoin:miter;stroke-miterlimit:10;stroke-dasharray:none;stroke-opacity:1"
       d="m 33.416328,753.0946 52.027284,0 c 3.07456,0 4.61184,1.53728 4.61184,4.61184 l 0,105.14988 c 0,3.07456 -1.53728,4.61184 -4.61184,4.61184 l -52.027284,0 c -3.074558,0 -4.611837,-1.53728 -4.611837,-4.61184 l 0,-105.14988 c 0,-3.07456 1.537279,-4.61184 4.611837,-4.61184 z" />
    <text
       id="text4222"
       style="font-variant:normal;font-weight:normal;font-size:36.89469528px;font-family:Lato;-inkscape-font-specification:Lato-Regular;writing-mode:lr-tb;fill:#333333;fill-opacity:1;fill-rule:nonzero;stroke:none"
       x="49.644913"
       y="820.09674">
      <tspan
         id="tspan4224"
         y="820.09674"
         x="49.644913">a</tspan>
    </text>
    <path
       inkscape:connector-curvature="0"
       id="path4240"
       style="fill:#ececff;fill-opacity:1;fill-rule:nonzero;stroke:none"
       d="m 140.78566,753.0946 117.25596,0 c 3.07456,0 4.61184,1.53728 4.61184,4.61184 l 0,105.14988 c 0,3.07456 -1.53728,4.61184 -4.61184,4.61184 l -117.25596,0 c -3.07456,0 -4.61184,-1.53728 -4.61184,-4.61184 l 0,-105.14988 c 0,-3.07456 1.53728,-4.61184 4.61184,-4.61184 z" />
    <path
       inkscape:connector-curvature="0"
       id="path4242"
       style="fill:none;stroke:#000099;stroke-width:7.99999714;stroke-linecap:butt;stroke-linejoin:miter;stroke-miterlimit:10;stroke-dasharray:none;stroke-opacity:1"
       d="m 140.78566,753.0946 117.25596,0 c 3.07456,0 4.61184,1.53728 4.61184,4.61184 l 0,105.14988 c 0,3.07456 -1.53728,4.61184 -4.61184,4.61184 l -117.25596,0 c -3.07456,0 -4.61184,-1.53728 -4.61184,-4.61184 l 0,-105.14988 c 0,-3.07456 1.53728,-4.61184 4.61184,-4.61184 z" />
    <text
       id="text4254"
       style="font-variant:normal;font-weight:normal;font-size:36.89469528px;font-family:Lato;-inkscape-font-specification:Lato-Regular;writing-mode:lr-tb;fill:#333333;fill-opacity:1;fill-rule:nonzero;stroke:none"
       x="146.9127"
       y="823.63226">
      <tspan
         id="tspan4256"
         sodipodi:role="line"
         y="823.63226"
         x="146.9127 168.69901 179.02953 213.28622 234.5929">TIMES</tspan>
    </text>
    <path
       inkscape:connector-curvature="0"
       id="path4272"
       style="fill:#ececff;fill-opacity:1;fill-rule:nonzero;stroke:none"
       d="m 119.71533,913.58655 52.02728,0 c 3.07456,0 4.61184,1.53728 4.61184,4.61184 l 0,105.14991 c 0,3.0745 -1.53728,4.6118 -4.61184,4.6118 l -52.02728,0 c -3.07456,0 -4.61185,-1.5373 -4.61185,-4.6118 l 0,-105.14991 c 0,-3.07456 1.53729,-4.61184 4.61185,-4.61184 z" />
    <path
       inkscape:connector-curvature="0"
       id="path4274"
       style="fill:none;stroke:#000099;stroke-width:7.99999714;stroke-linecap:butt;stroke-linejoin:miter;stroke-miterlimit:10;stroke-dasharray:none;stroke-opacity:1"
       d="m 119.71533,913.58655 52.02728,0 c 3.07456,0 4.61184,1.53728 4.61184,4.61184 l 0,105.14991 c 0,3.0745 -1.53728,4.6118 -4.61184,4.6118 l -52.02728,0 c -3.07456,0 -4.61185,-1.5373 -4.61185,-4.6118 l 0,-105.14991 c 0,-3.07456 1.53729,-4.61184 4.61185,-4.61184 z" />
    <text
       id="text4286"
       style="font-variant:normal;font-weight:normal;font-size:36.89469528px;font-family:Lato;-inkscape-font-specification:Lato-Regular;writing-mode:lr-tb;fill:#333333;fill-opacity:1;fill-rule:nonzero;stroke:none"
       x="135.94391"
       y="984.12421">
      <tspan
         id="tspan4288"
         y="984.12421"
         x="135.94391">b</tspan>
    </text>
    <path
       inkscape:connector-curvature="0"
       id="path4304"
       style="fill:#ececff;fill-opacity:1;fill-rule:nonzero;stroke:none"
       d="m 227.08467,913.58655 52.02728,0 c 3.07456,0 4.61184,1.53728 4.61184,4.61184 l 0,105.14991 c 0,3.0745 -1.53728,4.6118 -4.61184,4.6118 l -52.02728,0 c -3.07456,0 -4.61184,-1.5373 -4.61184,-4.6118 l 0,-105.14991 c 0,-3.07456 1.53728,-4.61184 4.61184,-4.61184 z" />
    <path
       inkscape:connector-curvature="0"
       id="path4306"
       style="fill:none;stroke:#000099;stroke-width:7.99999714;stroke-linecap:butt;stroke-linejoin:miter;stroke-miterlimit:10;stroke-dasharray:none;stroke-opacity:1"
       d="m 227.08467,913.58655 52.02728,0 c 3.07456,0 4.61184,1.53728 4.61184,4.61184 l 0,105.14991 c 0,3.0745 -1.53728,4.6118 -4.61184,4.6118 l -52.02728,0 c -3.07456,0 -4.61184,-1.5373 -4.61184,-4.6118 l 0,-105.14991 c 0,-3.07456 1.53728,-4.61184 4.61184,-4.61184 z" />
    <text
       id="text4318"
       style="font-variant:normal;font-weight:normal;font-size:36.89469528px;font-family:Lato;-inkscape-font-specification:Lato-Regular;writing-mode:lr-tb;fill:#333333;fill-opacity:1;fill-rule:nonzero;stroke:none"
       x="243.31325"
       y="982.10388">
      <tspan
         id="tspan4320"
         y="982.10388"
         x="243.31325">c</tspan>
    </text>
    <path
       inkscape:connector-curvature="0"
       id="path4336"
       style="fill:#ececff;fill-opacity:1;fill-rule:nonzero;stroke:none"
       d="m 351.96457,753.0946 124.37548,0 c 3.07456,0 4.61184,1.53728 4.61184,4.61184 l 0,105.14988 c 0,3.07456 -1.53728,4.61184 -4.61184,4.61184 l -124.37548,0 c -3.07456,0 -4.61184,-1.53728 -4.61184,-4.61184 l 0,-105.14988 c 0,-3.07456 1.53728,-4.61184 4.61184,-4.61184 z" />
    <path
       inkscape:connector-curvature="0"
       id="path4338"
       style="fill:none;stroke:#008800;stroke-width:7.99999714;stroke-linecap:butt;stroke-linejoin:miter;stroke-miterlimit:10;stroke-dasharray:none;stroke-opacity:1"
       d="m 351.96457,753.0946 124.37548,0 c 3.07456,0 4.61184,1.53728 4.61184,4.61184 l 0,105.14988 c 0,3.07456 -1.53728,4.61184 -4.61184,4.61184 l -124.37548,0 c -3.07456,0 -4.61184,-1.53728 -4.61184,-4.61184 l 0,-105.14988 c 0,-3.07456 1.53728,-4.61184 4.61184,-4.61184 z" />
    <text
       id="text4350"
       style="font-variant:normal;font-weight:normal;font-size:36.89469528px;font-family:Lato;-inkscape-font-specification:Lato-Regular;writing-mode:lr-tb;fill:#333333;fill-opacity:1;fill-rule:nonzero;stroke:none"
       x="360.11194"
       y="820.60181">
      <tspan
         id="tspan4352"
         sodipodi:role="line"
         y="820.60181"
         x="360.11194 381.89822 392.22873 426.48544 447.79211 467.80743">TIMES</tspan>
    </text>
    <path
       inkscape:connector-curvature="0"
       id="path4368"
       style="fill:#ececff;fill-opacity:1;fill-rule:nonzero;stroke:none"
       d="m 334.45402,913.58655 52.02728,0 c 3.07456,0 4.61184,1.53728 4.61184,4.61184 l 0,105.14991 c 0,3.0745 -1.53728,4.6118 -4.61184,4.6118 l -52.02728,0 c -3.07456,0 -4.61184,-1.5373 -4.61184,-4.6118 l 0,-105.14991 c 0,-3.07456 1.53728,-4.61184 4.61184,-4.61184 z" />
    <path
       inkscape:connector-curvature="0"
       id="path4370"
       style="fill:none;stroke:#008800;stroke-width:7.99999714;stroke-linecap:butt;stroke-linejoin:miter;stroke-miterlimit:10;stroke-dasharray:none;stroke-opacity:1"
       d="m 334.45402,913.58655 52.02728,0 c 3.07456,0 4.61184,1.53728 4.61184,4.61184 l 0,105.14991 c 0,3.0745 -1.53728,4.6118 -4.61184,4.6118 l -52.02728,0 c -3.07456,0 -4.61184,-1.5373 -4.61184,-4.6118 l 0,-105.14991 c 0,-3.07456 1.53728,-4.61184 4.61184,-4.61184 z" />
    <text
       id="text4382"
       style="font-variant:normal;font-weight:normal;font-size:36.89469528px;font-family:Lato;-inkscape-font-specification:Lato-Regular;writing-mode:lr-tb;fill:#333333;fill-opacity:1;fill-rule:nonzero;stroke:none"
       x="350.17755"
       y="978.56836">
      <tspan
         id="tspan4384"
         y="978.56836"
         x="350.17755">x</tspan>
    </text>
    <path
       inkscape:connector-curvature="0"
       id="path4400"
       style="fill:#ececff;fill-opacity:1;fill-rule:nonzero;stroke:none"
       d="m 441.82334,913.58655 52.02728,0 c 3.07456,0 4.61184,1.53728 4.61184,4.61184 l 0,105.14991 c 0,3.0745 -1.53728,4.6118 -4.61184,4.6118 l -52.02728,0 c -3.07456,0 -4.61184,-1.5373 -4.61184,-4.6118 l 0,-105.14991 c 0,-3.07456 1.53728,-4.61184 4.61184,-4.61184 z" />
    <path
       inkscape:connector-curvature="0"
       id="path4402"
       style="fill:none;stroke:#008800;stroke-width:7.99999714;stroke-linecap:butt;stroke-linejoin:miter;stroke-miterlimit:10;stroke-dasharray:none;stroke-opacity:1"
       d="m 441.82334,913.58655 52.02728,0 c 3.07456,0 4.61184,1.53728 4.61184,4.61184 l 0,105.14991 c 0,3.0745 -1.53728,4.6118 -4.61184,4.6118 l -52.02728,0 c -3.07456,0 -4.61184,-1.5373 -4.61184,-4.6118 l 0,-105.14991 c 0,-3.07456 1.53728,-4.61184 4.61184,-4.61184 z" />
    <text
       id="text4414"
       style="font-variant:normal;font-weight:normal;font-size:36.89469528px;font-family:Lato;-inkscape-font-specification:Lato-Regular;writing-mode:lr-tb;fill:#333333;fill-opacity:1;fill-rule:nonzero;stroke:none"
       x="458.55704"
       y="978.06329">
      <tspan
         id="tspan4416"
         y="978.06329"
         x="458.55704">y</tspan>
    </text>
  </g>
</svg>
